<svg width="104" height="104" viewBox="0 0 104 104" fill="none" xmlns="http://www.w3.org/2000/svg">
<circle cx="52" cy="52" r="50.25" fill="white" fill-opacity="0.3" stroke="#FF5900" stroke-width="2.5"/>
<g clip-path="url(#clip0_1121_116)">
<path d="M25.4352 38.7794L33.6611 43.2663C33.6907 43.2824 33.7213 43.2967 33.7526 43.3091C33.7589 43.3116 33.7653 43.3137 33.7717 43.316C33.7956 43.3249 33.8199 43.3327 33.8447 43.3394C33.8532 43.3417 33.8615 43.344 33.87 43.3461C33.8937 43.3516 33.9178 43.3561 33.9422 43.3594C33.9503 43.3608 33.9584 43.3623 33.9665 43.3632C34.0304 43.3712 34.095 43.3712 34.1589 43.3632C34.167 43.3623 34.175 43.3608 34.1831 43.3595C34.216 43.3548 34.2486 43.3481 34.2807 43.3395C34.3054 43.3328 34.3298 43.325 34.3536 43.3161C34.3599 43.3137 34.3664 43.3117 34.3727 43.3091C34.4041 43.2967 34.4346 43.2824 34.4642 43.2663L42.6902 38.7794C42.8218 38.7076 42.9318 38.6016 43.0083 38.4726C43.0849 38.3436 43.1253 38.1964 43.1253 38.0464V28.3228C43.1253 28.3194 43.1247 28.3161 43.1246 28.3128C43.1238 28.2442 43.1146 28.1761 43.0971 28.1098C43.0949 28.1019 43.0926 28.0941 43.0903 28.0862C43.0827 28.0608 43.0739 28.0357 43.0639 28.0108C43.0607 28.0031 43.0578 27.9953 43.0544 27.9875C43.0412 27.9568 43.0261 27.9269 43.0092 27.898L43.0086 27.8971L43.0063 27.8937C42.9895 27.8659 42.9711 27.8391 42.9512 27.8133C42.9459 27.8066 42.9403 27.8 42.9347 27.7933C42.9177 27.7725 42.8998 27.7526 42.881 27.7337C42.8754 27.7282 42.8702 27.7226 42.8646 27.7174C42.8148 27.6701 42.7593 27.6293 42.6994 27.5957C42.6962 27.5938 42.6934 27.5915 42.6902 27.5898L34.4625 23.1019C34.3398 23.0351 34.2023 23 34.0626 23C33.9229 23 33.7854 23.0351 33.6628 23.1019L25.4353 27.5898C25.432 27.5916 25.4292 27.5939 25.426 27.5957C25.3661 27.6293 25.3107 27.6701 25.261 27.7173C25.2553 27.7226 25.2498 27.7284 25.2443 27.734C25.2256 27.7527 25.2078 27.7724 25.1908 27.7931C25.1853 27.7999 25.1795 27.8066 25.1741 27.8136C25.1542 27.8392 25.1358 27.866 25.119 27.8937L25.1168 27.8971L25.1162 27.898C25.0994 27.9269 25.0842 27.9568 25.0709 27.9875C25.0676 27.9953 25.0647 28.0031 25.0616 28.0108C25.0515 28.0358 25.0427 28.0609 25.0352 28.0862C25.0329 28.094 25.0304 28.1018 25.0284 28.1098C25.0108 28.1761 25.0016 28.2442 25.0008 28.3128C25.0008 28.3161 25.0001 28.3194 25.0001 28.3228V38.0464C25.0001 38.1964 25.0405 38.3436 25.1171 38.4726C25.1937 38.6016 25.3036 38.7076 25.4353 38.7794H25.4352ZM41.4553 37.5508L34.8976 41.1277V33.661L41.4554 29.786L41.4553 37.5508ZM34.0628 24.786L40.6 28.3518L34.0628 32.2147L27.5256 28.3517L34.0628 24.786ZM26.6699 29.786L33.2277 33.661V41.1277L26.6699 37.5508V29.786ZM58.3227 76.3379L58.2879 76.3436C58.0696 76.3832 57.8758 76.5073 57.7485 76.689C57.6211 76.8706 57.5706 77.0952 57.6079 77.3139C57.6452 77.5325 57.7673 77.7277 57.9476 77.8569C58.1279 77.9861 58.3519 78.0389 58.571 78.004C58.7901 77.969 58.9865 77.849 59.1176 77.67C59.2486 77.491 59.3038 77.2676 59.2711 77.0482C59.2384 76.8288 59.1205 76.6311 58.9429 76.4981C58.7654 76.3652 58.5425 76.3077 58.3227 76.3381V76.3379ZM58.464 77.2856L58.446 77.1638L58.4657 77.2952L58.464 77.2856ZM81.9993 28.3128C81.9986 28.2442 81.9893 28.1761 81.9717 28.1098C81.9697 28.1019 81.9673 28.0941 81.9651 28.0862C81.9575 28.0608 81.9487 28.0357 81.9386 28.0108C81.9354 28.0031 81.9325 27.9953 81.9292 27.9875C81.9159 27.9568 81.9008 27.9269 81.8839 27.898L81.8832 27.8971L81.8811 27.8937C81.8643 27.866 81.8459 27.8392 81.826 27.8136C81.8207 27.8066 81.8149 27.8 81.8093 27.7932C81.7923 27.7724 81.7745 27.7526 81.7559 27.7339L81.7392 27.7172C81.6894 27.6701 81.634 27.6293 81.5743 27.5958C81.5709 27.5939 81.5682 27.5916 81.5648 27.5897L73.3372 23.1019C73.2146 23.0351 73.0771 23 72.9374 23C72.7977 23 72.6602 23.0351 72.5376 23.1019L64.3099 27.5898C64.3065 27.5916 64.3036 27.5939 64.3004 27.5958C64.2407 27.6293 64.1853 27.6701 64.1356 27.7172C64.1298 27.7227 64.1244 27.7285 64.1187 27.7342C64.1002 27.7528 64.0824 27.7723 64.0655 27.793C64.0599 27.7999 64.0541 27.8066 64.0487 27.8136C64.0288 27.8392 64.0105 27.866 63.9937 27.8937L63.9915 27.8971L63.9908 27.898C63.974 27.9269 63.9589 27.9568 63.9456 27.9875C63.9423 27.9953 63.9394 28.0031 63.9361 28.0108C63.9261 28.0358 63.9173 28.0609 63.9097 28.0862C63.9075 28.094 63.9051 28.1018 63.903 28.1098C63.8854 28.1761 63.8762 28.2442 63.8755 28.3128C63.8755 28.3161 63.8747 28.3194 63.8747 28.3228V38.0464C63.8747 38.1964 63.9151 38.3437 63.9917 38.4726C64.0683 38.6016 64.1783 38.7076 64.31 38.7794L72.5358 43.2663C72.5654 43.2824 72.5959 43.2967 72.6273 43.3091C72.6336 43.3116 72.6401 43.3137 72.6464 43.316C72.6703 43.3249 72.6946 43.3327 72.7194 43.3394L72.7447 43.3461C72.7685 43.3516 72.7925 43.3561 72.8169 43.3594C72.825 43.3608 72.833 43.3623 72.8412 43.3632C72.905 43.3712 72.9697 43.3712 73.0335 43.3632C73.0417 43.3623 73.0497 43.3608 73.0578 43.3595C73.0907 43.3548 73.1232 43.3481 73.1553 43.3395C73.1802 43.3328 73.2045 43.325 73.2284 43.3161C73.2347 43.3137 73.2412 43.3117 73.2474 43.3091C73.2787 43.2967 73.3093 43.2824 73.3389 43.2663L81.5649 38.7794C81.6966 38.7076 81.8065 38.6016 81.8831 38.4726C81.9596 38.3436 82 38.1964 82 38.0464V28.3228C82 28.3194 81.9993 28.3161 81.9993 28.3128ZM72.1024 41.1277L65.5446 37.5508V29.786L72.1024 33.661V41.1277ZM72.9373 32.2147L66.4002 28.3517L72.9373 24.786L79.4745 28.3518L72.9373 32.2147ZM80.3301 37.5508L73.7723 41.1277V33.661L80.3301 29.786V37.5508ZM27.5583 55.7312C27.5748 55.7312 27.5914 55.7308 27.6081 55.7298C27.7176 55.7233 27.8247 55.6954 27.9234 55.6476C28.022 55.5997 28.1103 55.5329 28.1832 55.451C28.256 55.369 28.312 55.2735 28.348 55.1699C28.3839 55.0663 28.3991 54.9566 28.3926 54.8472L28.3911 54.8239C28.373 54.6048 28.2692 54.4017 28.1023 54.2586C27.9354 54.1156 27.7188 54.0441 27.4995 54.0598C27.2802 54.0754 27.0759 54.1769 26.931 54.3422C26.7861 54.5076 26.7123 54.7233 26.7255 54.9428L27.5591 54.8963L26.7256 54.9452C26.7381 55.1577 26.8312 55.3574 26.986 55.5035C27.1408 55.6495 27.3455 55.731 27.5583 55.7312ZM27.8127 49.0816C27.9203 49.1029 28.0311 49.1027 28.1386 49.0812C28.2461 49.0596 28.3484 49.0171 28.4395 48.956C28.5305 48.8949 28.6087 48.8164 28.6694 48.725C28.7301 48.6337 28.7722 48.5313 28.7933 48.4236L28.7963 48.4083C28.8363 48.1914 28.789 47.9675 28.6645 47.7854C28.54 47.6034 28.3486 47.478 28.132 47.4366C27.9154 47.3952 27.6912 47.4411 27.5083 47.5645C27.3255 47.6878 27.1989 47.8784 27.1561 48.0948L27.974 48.2624L27.1549 48.101C27.1337 48.2086 27.1339 48.3193 27.1555 48.4268C27.1771 48.5343 27.2197 48.6365 27.2808 48.7276C27.3419 48.8186 27.4203 48.8968 27.5116 48.9575C27.6029 49.0182 27.7052 49.0604 27.8128 49.0816H27.8127ZM26.7237 51.4937L26.7223 51.5171C26.7092 51.7382 26.7845 51.9554 26.9316 52.121C27.0787 52.2866 27.2856 52.387 27.5067 52.4002C27.5234 52.4011 27.5401 52.4015 27.5566 52.4015C27.7201 52.4025 27.8804 52.3557 28.0178 52.2669C28.1552 52.1781 28.2637 52.0511 28.33 51.9016C28.3963 51.752 28.4175 51.5863 28.391 51.4249C28.3645 51.2635 28.2915 51.1133 28.1809 50.9928C28.0703 50.8722 27.9269 50.7866 27.7684 50.7463C27.6098 50.7061 27.443 50.7129 27.2883 50.7661C27.1336 50.8193 26.9977 50.9165 26.8975 51.0457C26.7972 51.175 26.7368 51.3307 26.7237 51.4937ZM48.6153 26.9941C48.7328 26.9954 48.8492 26.9718 48.957 26.9251C49.0648 26.8783 49.1615 26.8094 49.2408 26.7227C49.3202 26.636 49.3804 26.5336 49.4175 26.4221C49.4546 26.3107 49.4678 26.1926 49.4562 26.0757C49.4446 25.9588 49.4085 25.8456 49.3502 25.7436C49.2919 25.6415 49.2128 25.5529 49.118 25.4836C49.0232 25.4142 48.9148 25.3655 48.7999 25.3409C48.685 25.3162 48.5662 25.316 48.4513 25.3403C48.4435 25.3419 48.4249 25.3462 48.4171 25.3481C48.2188 25.3966 48.0452 25.5161 47.9291 25.6839C47.8129 25.8517 47.7622 26.0563 47.7866 26.2589C47.811 26.4616 47.9088 26.6483 48.0615 26.7837C48.2142 26.9192 48.4112 26.994 48.6153 26.9941ZM61.4511 75.625C61.2395 75.6866 61.0608 75.8292 60.954 76.022C60.8472 76.2147 60.8209 76.4418 60.8809 76.6538C60.9408 76.8659 61.0821 77.0456 61.274 77.1539C61.4659 77.2622 61.6928 77.2902 61.9053 77.2319C61.9129 77.2298 61.9311 77.2244 61.9387 77.2221C62.1493 77.1564 62.3253 77.0101 62.4284 76.8151C62.5314 76.62 62.5531 76.3922 62.4887 76.1812C62.4243 75.9702 62.279 75.7933 62.0846 75.6891C61.8902 75.5849 61.6624 75.5618 61.4511 75.625ZM61.5476 27.3585C61.5563 27.3612 61.5754 27.3669 61.5842 27.3692C61.7983 27.4264 62.0262 27.3969 62.2187 27.2871C62.4111 27.1773 62.5525 26.996 62.6122 26.7826C62.6718 26.5693 62.6449 26.341 62.5373 26.1473C62.4297 25.9536 62.25 25.8102 62.0373 25.7481C61.8246 25.6861 61.5961 25.7104 61.4012 25.8158C61.2063 25.9212 61.0608 26.0992 60.9964 26.3112C60.9319 26.5231 60.9536 26.752 61.0568 26.9481C61.16 27.1441 61.3363 27.2916 61.5476 27.3585ZM55.2158 26.3516L55.2408 26.3519C55.4603 26.3521 55.6709 26.2658 55.8273 26.1118C55.9836 25.9578 56.073 25.7484 56.0762 25.529C56.0793 25.3096 55.996 25.0978 55.8442 24.9393C55.6923 24.7809 55.4842 24.6886 55.2649 24.6824L55.2538 24.682C55.1445 24.679 55.0357 24.6977 54.9336 24.7368C54.8315 24.7759 54.7381 24.8348 54.6589 24.9101C54.5796 24.9854 54.5159 25.0756 54.4715 25.1755C54.4271 25.2754 54.4029 25.3831 54.4002 25.4924C54.395 25.7143 54.4778 25.9293 54.6307 26.0903C54.7835 26.2513 54.9939 26.3453 55.2158 26.3516ZM58.4185 26.653C58.6355 26.688 58.8575 26.636 59.0365 26.5082C59.2154 26.3805 59.3367 26.1874 59.3741 25.9708C59.4116 25.7542 59.3621 25.5316 59.2364 25.3513C59.1107 25.1709 58.919 25.0474 58.7028 25.0075C58.6948 25.006 58.6761 25.0031 58.668 25.0018C58.449 24.9687 58.2259 25.0239 58.0476 25.1554C57.8694 25.2868 57.7507 25.4837 57.7176 25.7026C57.6845 25.9216 57.7398 26.1447 57.8712 26.323C58.0027 26.5012 58.1995 26.6199 58.4185 26.653ZM51.9001 26.4619C51.9247 26.4619 51.9495 26.4608 51.9745 26.4586C51.9829 26.4579 52.0025 26.4559 52.0111 26.4549C52.2266 26.4269 52.4227 26.3161 52.558 26.1462C52.6934 25.9762 52.7573 25.7603 52.7364 25.544C52.7155 25.3277 52.6114 25.128 52.446 24.9871C52.2806 24.8462 52.067 24.7751 51.8501 24.7888C51.6333 24.8025 51.4302 24.8999 51.2839 25.0606C51.1376 25.2212 51.0594 25.4324 51.0659 25.6495C51.0724 25.8667 51.163 26.0729 51.3187 26.2245C51.4743 26.3761 51.6828 26.4612 51.9001 26.4619ZM45.4164 27.9479C45.5387 27.95 45.66 27.9253 45.7717 27.8754C45.8834 27.8256 45.9829 27.7519 46.0631 27.6595C46.1433 27.5672 46.2023 27.4584 46.236 27.3407C46.2697 27.2231 46.2772 27.0996 46.258 26.9787C46.2388 26.8579 46.1933 26.7428 46.1249 26.6414C46.0564 26.54 45.9666 26.4548 45.8617 26.3918C45.7568 26.3289 45.6394 26.2896 45.5177 26.2769C45.3961 26.2642 45.2731 26.2782 45.1574 26.3181L45.1291 26.3285C44.9456 26.3966 44.7918 26.5269 44.6945 26.6968C44.5973 26.8667 44.5627 27.0653 44.5969 27.2581C44.6311 27.4508 44.7318 27.6255 44.8816 27.7515C45.0314 27.8776 45.2206 27.9471 45.4164 27.9479ZM27.1651 58.3603C27.2023 58.549 27.3039 58.7189 27.4526 58.8409C27.6013 58.9629 27.7878 59.0293 27.9802 59.0289C28.0967 59.0289 28.212 59.0046 28.3187 58.9575C28.4253 58.9105 28.521 58.8416 28.5995 58.7555C28.678 58.6693 28.7377 58.5677 28.7747 58.4572C28.8117 58.3466 28.8253 58.2296 28.8145 58.1135C28.8036 57.9974 28.7687 57.8849 28.7119 57.7831C28.6551 57.6813 28.5777 57.5925 28.4846 57.5223C28.3915 57.4521 28.2848 57.4022 28.1713 57.3756C28.0578 57.3491 27.94 57.3465 27.8254 57.3681C27.7177 57.3886 27.6151 57.4302 27.5235 57.4904C27.4318 57.5507 27.353 57.6283 27.2913 57.719C27.2297 57.8097 27.1866 57.9117 27.1644 58.0191C27.1422 58.1265 27.1413 58.2372 27.1619 58.3449C27.1623 58.3464 27.1648 58.3588 27.1651 58.3603ZM55.1065 76.6468L55.0951 76.6471C54.8757 76.6533 54.6676 76.7456 54.5158 76.9041C54.3639 77.0626 54.2806 77.2745 54.2838 77.494C54.2871 77.7134 54.3766 77.9228 54.533 78.0768C54.6894 78.2307 54.9001 78.3169 55.1196 78.3167L55.1449 78.3164L55.1311 77.4814L55.1556 78.316C55.3769 78.3095 55.5866 78.2154 55.7386 78.0542C55.8905 77.8931 55.9722 77.6783 55.9657 77.4569C55.9592 77.2355 55.865 77.0258 55.7039 76.8739C55.5428 76.722 55.3279 76.6403 55.1066 76.6468H55.1065ZM78.4293 44.0448C78.3231 44.0721 78.2233 44.1201 78.1357 44.186C78.0481 44.2519 77.9743 44.3345 77.9185 44.4289C77.8628 44.5233 77.8262 44.6278 77.8108 44.7364C77.7955 44.8449 77.8016 44.9555 77.829 45.0616L77.8366 45.09C77.8861 45.266 77.9917 45.4211 78.1373 45.5317C78.2828 45.6424 78.4605 45.7026 78.6434 45.7032C78.7718 45.7031 78.8984 45.6733 79.0135 45.6161C79.1285 45.559 79.2288 45.4761 79.3065 45.3738C79.3842 45.2716 79.4373 45.1528 79.4616 45.0266C79.4859 44.9005 79.4807 44.7705 79.4465 44.6467L78.6376 44.8533L79.4461 44.6451C79.4188 44.5388 79.3708 44.4391 79.3049 44.3514C79.239 44.2638 79.1565 44.19 79.0621 44.1342C78.9676 44.0785 78.8632 44.0419 78.7546 44.0265C78.646 44.0112 78.5355 44.0174 78.4293 44.0448ZM80.3301 51.4443C80.33 51.3349 80.3083 51.2267 80.2662 51.1257C80.2242 51.0248 80.1626 50.9332 80.085 50.8561C80.0074 50.779 79.9153 50.718 79.8141 50.6766C79.7129 50.6353 79.6045 50.6143 79.4951 50.6149C79.2731 50.6161 79.0606 50.7053 78.9041 50.8628C78.7476 51.0203 78.6599 51.2334 78.6602 51.4554C78.6602 51.465 78.6603 51.4745 78.6606 51.4839C78.6603 51.493 78.6602 51.502 78.6602 51.5111C78.6602 51.7325 78.7481 51.9449 78.9047 52.1015C79.0613 52.2581 79.2737 52.3461 79.4951 52.3461C79.7166 52.3461 79.929 52.2581 80.0855 52.1015C80.2421 51.9449 80.3301 51.7325 80.3301 51.5111V51.5C80.3301 51.4922 80.33 51.4844 80.3298 51.4767C80.3299 51.4696 80.3301 51.4625 80.3301 51.4554V51.4443ZM48.7111 76.0409C48.6989 76.038 48.6867 76.0352 48.6744 76.0326C48.4571 75.9883 48.2312 76.0314 48.0455 76.1527C47.8599 76.274 47.7296 76.4636 47.6829 76.6803C47.6361 76.8971 47.6768 77.1235 47.796 77.3105C47.9152 77.4975 48.1033 77.6299 48.3195 77.679C48.5357 77.7282 48.7626 77.6901 48.9509 77.573C49.1392 77.4559 49.2737 77.2693 49.3253 77.0536C49.3768 76.838 49.3412 76.6107 49.2263 76.4211C49.1113 76.2315 48.9262 76.0949 48.7111 76.0409ZM48.4891 76.957L48.4905 76.9506L48.5144 76.8525L48.4891 76.957ZM51.8802 76.5467C51.6601 76.5218 51.4392 76.5854 51.266 76.7235C51.0929 76.8615 50.9816 77.0627 50.9568 77.2827C50.9319 77.5028 50.9955 77.7237 51.1336 77.8969C51.2716 78.07 51.4728 78.1813 51.6928 78.2061C51.7013 78.2071 51.7209 78.209 51.7294 78.2098C51.7544 78.212 51.7792 78.2132 51.8037 78.2132C52.0186 78.2133 52.2254 78.1306 52.3809 77.9823C52.5364 77.8339 52.6287 77.6312 52.6385 77.4165C52.6484 77.2018 52.5751 76.9916 52.4339 76.8295C52.2926 76.6675 52.0943 76.5662 51.8803 76.5467H51.8802ZM55.8591 45.469V44.542C55.8591 44.3205 55.7711 44.1081 55.6145 43.9516C55.4579 43.795 55.2455 43.707 55.0241 43.707C54.8026 43.707 54.5903 43.795 54.4337 43.9516C54.2771 44.1081 54.1891 44.3205 54.1891 44.542V45.2883H53.2463V44.542C53.2463 44.3205 53.1583 44.1081 53.0017 43.9516C52.8452 43.795 52.6328 43.707 52.4113 43.707C52.1899 43.707 51.9775 43.795 51.8209 43.9516C51.6643 44.1081 51.5764 44.3205 51.5764 44.542V45.2883H49.9501C49.7286 45.2883 49.5163 45.3763 49.3597 45.5329C49.2031 45.6894 49.1151 45.9018 49.1151 46.1233C49.1151 46.3447 49.2031 46.5571 49.3597 46.7137C49.5163 46.8703 49.7286 46.9582 49.9501 46.9582H50.2729V56.0417H49.9501C49.7286 56.0417 49.5163 56.1297 49.3597 56.2863C49.2031 56.4428 49.1151 56.6552 49.1151 56.8767C49.1151 57.0981 49.2031 57.3105 49.3597 57.4671C49.5163 57.6237 49.7286 57.7116 49.9501 57.7116H51.5764V58.458C51.5764 58.6794 51.6643 58.8918 51.8209 59.0484C51.9775 59.205 52.1899 59.2929 52.4113 59.2929C52.6328 59.2929 52.8452 59.205 53.0017 59.0484C53.1583 58.8918 53.2463 58.6794 53.2463 58.458V57.7116H54.1892V58.458C54.1892 58.6794 54.2772 58.8918 54.4338 59.0484C54.5904 59.205 54.8028 59.2929 55.0242 59.2929C55.2456 59.2929 55.458 59.205 55.6146 59.0484C55.7712 58.8918 55.8592 58.6794 55.8592 58.458V57.5309C56.4519 57.3171 56.9643 56.9258 57.3268 56.4103C57.6893 55.8948 57.8841 55.2802 57.8849 54.6501V53.7265C57.885 53.3092 57.7995 52.8964 57.6338 52.5134C57.4681 52.1305 57.2256 51.7855 56.9213 51.5C57.2256 51.2144 57.4681 50.8695 57.6338 50.4865C57.7995 50.1036 57.885 49.6907 57.8849 49.2734V48.3498C57.8841 47.7197 57.6892 47.1051 57.3268 46.5896C56.9643 46.0741 56.4518 45.6829 55.8591 45.469ZM56.215 54.6501C56.2146 55.0191 56.0678 55.3728 55.8069 55.6337C55.546 55.8945 55.1923 56.0413 54.8234 56.0417H51.943V52.3349H54.8234C55.1923 52.3353 55.546 52.4821 55.8069 52.743C56.0678 53.0039 56.2146 53.3576 56.215 53.7265V54.6501ZM56.215 49.2734C56.2146 49.6424 56.0678 49.9961 55.8069 50.257C55.546 50.5178 55.1923 50.6646 54.8234 50.665H51.943V46.9582H54.8234C55.1923 46.9586 55.546 47.1054 55.8069 47.3663C56.0678 47.6272 56.2146 47.9809 56.215 48.3498V49.2734ZM81.9718 64.7406L81.9649 64.717C81.9574 64.6916 81.9487 64.6664 81.9386 64.6416C81.9354 64.6338 81.9325 64.626 81.9292 64.6182C81.9159 64.5875 81.9008 64.5576 81.8839 64.5287L81.8832 64.5278L81.8811 64.5245C81.8643 64.4967 81.8458 64.4699 81.8259 64.4442C81.8207 64.4373 81.815 64.4308 81.8094 64.424C81.7923 64.4033 81.7745 64.3834 81.7558 64.3646C81.7502 64.359 81.745 64.3535 81.7393 64.3481C81.6895 64.3008 81.634 64.2599 81.5741 64.2263C81.5708 64.2245 81.5681 64.2223 81.5648 64.2205L73.3372 59.7327C73.2146 59.6658 73.0771 59.6307 72.9374 59.6307C72.7977 59.6307 72.6602 59.6658 72.5376 59.7327L64.3099 64.2205C64.3065 64.2223 64.3036 64.2247 64.3004 64.2266C64.2407 64.2601 64.1854 64.3008 64.1357 64.3479C64.1298 64.3535 64.1244 64.3593 64.1187 64.3649C64.1002 64.3836 64.0824 64.4032 64.0655 64.4238C64.0599 64.4306 64.0541 64.4373 64.0488 64.4443C64.0289 64.4699 64.0104 64.4967 63.9936 64.5245L63.9915 64.5278L63.9908 64.5287C63.974 64.5576 63.9589 64.5875 63.9456 64.6182C63.9423 64.626 63.9394 64.6338 63.9361 64.6416C63.9261 64.6665 63.9173 64.6916 63.9097 64.717C63.9075 64.7247 63.9051 64.7325 63.903 64.7406C63.8854 64.8068 63.8762 64.875 63.8755 64.9435C63.8755 64.9468 63.8747 64.9502 63.8747 64.9535V74.6773C63.8747 74.8273 63.9151 74.9745 63.9917 75.1035C64.0683 75.2325 64.1783 75.3384 64.31 75.4102L72.5358 79.897C72.5654 79.9131 72.5959 79.9274 72.6273 79.9398C72.6336 79.9423 72.6401 79.9444 72.6464 79.9468C72.6703 79.9557 72.6946 79.9635 72.7194 79.9701L72.7447 79.9768C72.7685 79.9824 72.7925 79.9868 72.8169 79.9903C72.825 79.9914 72.833 79.9931 72.8412 79.9941C72.905 80.002 72.9697 80.002 73.0335 79.9941C73.0417 79.9931 73.0497 79.9915 73.0578 79.9903C73.0907 79.9856 73.1232 79.9789 73.1553 79.9702C73.1802 79.9636 73.2045 79.9558 73.2284 79.9469C73.2347 79.9444 73.2412 79.9424 73.2474 79.9398C73.2787 79.9274 73.3093 79.9131 73.3389 79.897L81.5649 75.4101C81.6966 75.3383 81.8065 75.2323 81.8831 75.1033C81.9596 74.9744 82 74.8271 82 74.6771V64.9535C82 64.9502 81.9993 64.9468 81.9993 64.9435C81.9986 64.875 81.9893 64.8068 81.9717 64.7406H81.9718ZM72.1024 77.7585L65.5446 74.1815V66.4168L72.1024 70.2919V77.7585ZM72.9373 68.8456L66.4002 64.9825L72.9373 61.4167L79.4746 64.9826L72.9373 68.8456ZM80.3301 74.1815L73.7723 77.7585V70.2918L80.3301 66.4168V74.1815ZM80.1053 48.0118C80.0762 47.7937 79.9617 47.596 79.787 47.4623C79.6122 47.3285 79.3914 47.2696 79.1733 47.2986C79.009 47.3188 78.8545 47.3873 78.7291 47.4953C78.6037 47.6033 78.5131 47.7461 78.4688 47.9055C78.4244 48.0649 78.4283 48.2339 78.4799 48.3912C78.5315 48.5484 78.6285 48.6869 78.7587 48.789C78.8889 48.8912 79.0464 48.9525 79.2114 48.9653C79.3764 48.978 79.5415 48.9416 79.6858 48.8606C79.8302 48.7796 79.9473 48.6577 80.0224 48.5102C80.0975 48.3628 80.1272 48.1963 80.1079 48.032L80.1053 48.0118ZM43.0971 64.7406C43.0949 64.7327 43.0926 64.7249 43.0903 64.717C43.0827 64.6916 43.0739 64.6664 43.0639 64.6416C43.0607 64.6338 43.0578 64.626 43.0544 64.6182C43.0412 64.5875 43.0261 64.5576 43.0092 64.5287L43.0086 64.5278L43.0063 64.5245C42.9895 64.4967 42.9711 64.4699 42.9512 64.4442C42.9459 64.4373 42.9403 64.4308 42.9349 64.4242C42.9176 64.4032 42.8996 64.3832 42.8809 64.3644C42.8754 64.3589 42.8702 64.3535 42.8646 64.3482C42.8147 64.3008 42.7592 64.2599 42.6992 64.2262C42.6961 64.2245 42.6933 64.2222 42.6902 64.2205L34.4625 59.7327C34.3398 59.6658 34.2023 59.6307 34.0626 59.6307C33.9229 59.6307 33.7854 59.6658 33.6628 59.7327L25.4353 64.2205C25.432 64.2223 25.4291 64.2248 25.4257 64.2266C25.3661 64.26 25.3109 64.3008 25.2613 64.3478C25.2553 64.3534 25.2497 64.3593 25.2439 64.3652C25.2255 64.3837 25.2078 64.4032 25.191 64.4236C25.1854 64.4305 25.1795 64.4373 25.174 64.4444C25.1542 64.4701 25.1358 64.4968 25.119 64.5246L25.1168 64.5278L25.1162 64.5287C25.0994 64.5576 25.0842 64.5875 25.0709 64.6182C25.0676 64.626 25.0647 64.6338 25.0616 64.6416C25.0515 64.6665 25.0427 64.6916 25.0352 64.717C25.0329 64.7247 25.0304 64.7325 25.0284 64.7406C25.0108 64.8068 25.0016 64.875 25.0008 64.9435C25.0008 64.9468 25.0001 64.9502 25.0001 64.9535V74.6771C25.0001 74.8271 25.0405 74.9744 25.1171 75.1034C25.1937 75.2323 25.3036 75.3383 25.4353 75.4101L33.6612 79.897C33.6908 79.9131 33.7214 79.9274 33.7527 79.9398C33.759 79.9423 33.7654 79.9444 33.7718 79.9468C33.7957 79.9557 33.82 79.9635 33.8448 79.9701C33.8533 79.9725 33.8616 79.9747 33.8701 79.9768C33.8938 79.9824 33.9179 79.9868 33.9423 79.9903C33.9505 79.9914 33.9585 79.9931 33.9666 79.9941C34.0305 80.002 34.0951 80.002 34.159 79.9941C34.1671 79.9931 34.1751 79.9915 34.1832 79.9903C34.2161 79.9856 34.2487 79.9789 34.2808 79.9702C34.3056 79.9636 34.3299 79.9558 34.3537 79.9469C34.36 79.9444 34.3665 79.9424 34.3728 79.9398C34.4042 79.9274 34.4347 79.9131 34.4643 79.897L42.6903 75.4101C42.822 75.3383 42.9319 75.2323 43.0084 75.1034C43.085 74.9744 43.1254 74.8271 43.1255 74.6771V64.9535C43.1255 64.9502 43.1248 64.9468 43.1247 64.9435C43.1239 64.875 43.1147 64.8068 43.0972 64.7406H43.0971ZM33.2277 77.7585L26.6699 74.1815V66.4168L33.2277 70.2919V77.7585ZM34.0627 68.8456L27.5254 64.9825L34.0626 61.4167L40.6 64.9826L34.0627 68.8456ZM41.4554 74.1815L34.8976 77.7585V70.2918L41.4554 66.4167V74.1815ZM29.6087 45.2932C29.678 45.0833 29.6613 44.8545 29.5622 44.6569C29.4631 44.4593 29.2897 44.309 29.0799 44.2391C28.8702 44.1692 28.6413 44.1853 28.4435 44.2839C28.2456 44.3825 28.0949 44.5555 28.0245 44.7651L28.0198 44.7794C27.9796 44.9044 27.9694 45.0371 27.9902 45.1667C28.0109 45.2963 28.0619 45.4192 28.1391 45.5254C28.2163 45.6316 28.3175 45.7181 28.4344 45.7778C28.5513 45.8375 28.6806 45.8688 28.8119 45.8691C28.9882 45.8685 29.16 45.8126 29.3029 45.7093C29.4458 45.606 29.5528 45.4605 29.6087 45.2932ZM66.166 51.5C66.166 48.9949 65.4232 46.546 64.0314 44.4631C62.6397 42.3802 60.6615 40.7568 58.3471 39.7981C56.0327 38.8394 53.486 38.5886 51.029 39.0773C48.572 39.566 46.3152 40.7724 44.5438 42.5437C42.7724 44.3151 41.5661 46.572 41.0774 49.0289C40.5886 51.4859 40.8395 54.0326 41.7981 56.347C42.7568 58.6615 44.3802 60.6396 46.4631 62.0314C48.5461 63.4231 50.9949 64.166 53.5 64.166C56.8581 64.1622 60.0775 62.8265 62.452 60.452C64.8266 58.0775 66.1622 54.858 66.166 51.5ZM53.5 62.4961C51.3252 62.4961 49.1992 61.8512 47.3909 60.6429C45.5826 59.4346 44.1732 57.7173 43.3409 55.708C42.5087 53.6987 42.2909 51.4878 42.7152 49.3547C43.1395 47.2217 44.1868 45.2624 45.7246 43.7246C47.2624 42.1867 49.2217 41.1394 51.3548 40.7152C53.4878 40.2909 55.6988 40.5086 57.708 41.3409C59.7173 42.1732 61.4347 43.5826 62.6429 45.3909C63.8512 47.1992 64.4961 49.3251 64.4961 51.5C64.4928 54.4153 63.3332 57.2103 61.2718 59.2717C59.2103 61.3332 56.4153 62.4927 53.5 62.4961ZM78.8601 57.2837C78.6997 57.241 78.5302 57.2468 78.373 57.3002C78.2158 57.3537 78.0779 57.4524 77.9767 57.584C77.8755 57.7156 77.8155 57.8742 77.8042 58.0399C77.7929 58.2055 77.8309 58.3708 77.9133 58.5149C77.9957 58.6591 78.1189 58.7756 78.2674 58.8498C78.4159 58.9241 78.5831 58.9528 78.7479 58.9323C78.9126 58.9118 79.0676 58.843 79.1934 58.7346C79.3191 58.6262 79.41 58.483 79.4546 58.323L79.4603 58.3008C79.5155 58.0863 79.4834 57.8587 79.3708 57.668C79.2583 57.4773 79.0746 57.339 78.8602 57.2837H78.8601ZM79.3943 53.9954C79.1747 53.9664 78.9527 54.0258 78.7769 54.1604C78.6011 54.2951 78.486 54.4941 78.4569 54.7136C78.4565 54.7167 78.4547 54.7307 78.4544 54.7336C78.4287 54.9528 78.4909 55.1733 78.6273 55.3469C78.7637 55.5204 78.9633 55.6329 79.1824 55.6597C79.4015 55.6865 79.6223 55.6254 79.7965 55.4898C79.9707 55.3542 80.0841 55.1552 80.112 54.9362L79.2847 54.8232L80.1124 54.9328C80.1268 54.8241 80.1197 54.7136 80.0914 54.6076C80.0631 54.5017 80.0142 54.4024 79.9475 54.3153C79.8808 54.2283 79.7976 54.1552 79.7027 54.1003C79.6078 54.0454 79.503 54.0098 79.3943 53.9954ZM45.6117 75.1258C45.6011 75.1218 45.5904 75.1179 45.5797 75.1141C45.3697 75.0426 45.1399 75.0569 44.9404 75.1538C44.7408 75.2507 44.5876 75.4225 44.5139 75.6318C44.4403 75.841 44.4522 76.0709 44.5471 76.2714C44.642 76.472 44.8122 76.627 45.0207 76.7027C45.2292 76.7785 45.4592 76.7689 45.6607 76.676C45.8622 76.5832 46.0189 76.4146 46.0968 76.2068C46.1746 75.9991 46.1674 75.769 46.0766 75.5666C45.9858 75.3642 45.8188 75.2058 45.6119 75.1258H45.6117ZM45.2646 76.0516L45.269 76.0394L45.3186 75.9075L45.2646 76.0516Z" fill="#FF5900"/>
</g>
<defs>
<clipPath id="clip0_1121_116">
<rect width="57" height="57" fill="white" transform="translate(25 23)"/>
</clipPath>
</defs>
</svg>
