<svg width="104" height="104" viewBox="0 0 104 104" fill="none" xmlns="http://www.w3.org/2000/svg">
<circle cx="52" cy="52" r="50.25" fill="white" fill-opacity="0.3" stroke="#FF5900" stroke-width="2.5"/>
<path d="M77.4375 30.1875H27.5625C26.5182 30.1875 25.5167 30.6023 24.7783 31.3408C24.0398 32.0792 23.625 33.0807 23.625 34.125V70.875C23.625 71.9193 24.0398 72.9208 24.7783 73.6592C25.5167 74.3977 26.5182 74.8125 27.5625 74.8125H77.4375C78.4818 74.8125 79.4833 74.3977 80.2217 73.6592C80.9602 72.9208 81.375 71.9193 81.375 70.875V34.125C81.375 33.0807 80.9602 32.0792 80.2217 31.3408C79.4833 30.6023 78.4818 30.1875 77.4375 30.1875ZM27.5625 32.8125H77.4375C77.7856 32.8125 78.1194 32.9508 78.3656 33.1969C78.6117 33.4431 78.75 33.7769 78.75 34.125V40.6875H26.25V34.125C26.25 33.7769 26.3883 33.4431 26.6344 33.1969C26.8806 32.9508 27.2144 32.8125 27.5625 32.8125ZM77.4375 72.1875H27.5625C27.2144 72.1875 26.8806 72.0492 26.6344 71.8031C26.3883 71.5569 26.25 71.2231 26.25 70.875V43.3125H78.75V70.875C78.75 71.2231 78.6117 71.5569 78.3656 71.8031C78.1194 72.0492 77.7856 72.1875 77.4375 72.1875ZM32.8125 38.0625H28.875V35.4375H32.8125V38.0625ZM39.375 38.0625H35.4375V35.4375H39.375V38.0625ZM76.125 38.0625H64.3125V35.4375H76.125V38.0625ZM48.5625 49.875H45.9375V47.25C45.9375 46.9019 45.7992 46.5681 45.5531 46.3219C45.3069 46.0758 44.9731 45.9375 44.625 45.9375H36.75C36.4019 45.9375 36.0681 46.0758 35.8219 46.3219C35.5758 46.5681 35.4375 46.9019 35.4375 47.25V49.875H32.8125C31.7682 49.875 30.7667 50.2898 30.0283 51.0283C29.2898 51.7667 28.875 52.7682 28.875 53.8125V57.75C28.8773 58.5624 29.1308 59.3541 29.6007 60.0168C30.0707 60.6794 30.7341 61.1805 31.5 61.4513V65.625C31.5 66.6693 31.9148 67.6708 32.6533 68.4092C33.3917 69.1477 34.3932 69.5625 35.4375 69.5625H45.9375C46.9818 69.5625 47.9833 69.1477 48.7217 68.4092C49.4602 67.6708 49.875 66.6693 49.875 65.625V61.4513C50.6409 61.1805 51.3043 60.6794 51.7743 60.0168C52.2442 59.3541 52.4977 58.5624 52.5 57.75V53.8125C52.5 52.7682 52.0852 51.7667 51.3467 51.0283C50.6083 50.2898 49.6068 49.875 48.5625 49.875ZM38.0625 48.5625H43.3125V49.875H38.0625V48.5625ZM47.25 65.625C47.25 65.9731 47.1117 66.3069 46.8656 66.5531C46.6194 66.7992 46.2856 66.9375 45.9375 66.9375H35.4375C35.0894 66.9375 34.7556 66.7992 34.5094 66.5531C34.2633 66.3069 34.125 65.9731 34.125 65.625V61.6875H47.25V65.625ZM49.875 57.75C49.875 58.0981 49.7367 58.4319 49.4906 58.6781C49.2444 58.9242 48.9106 59.0625 48.5625 59.0625H32.8125C32.4644 59.0625 32.1306 58.9242 31.8844 58.6781C31.6383 58.4319 31.5 58.0981 31.5 57.75V53.8125C31.5 53.4644 31.6383 53.1306 31.8844 52.8844C32.1306 52.6383 32.4644 52.5 32.8125 52.5H48.5625C48.9106 52.5 49.2444 52.6383 49.4906 52.8844C49.7367 53.1306 49.875 53.4644 49.875 53.8125V57.75ZM73.5 47.25H76.125V49.875H70.875V51.1875H74.8125C75.1606 51.1875 75.4944 51.3258 75.7406 51.5719C75.9867 51.8181 76.125 52.1519 76.125 52.5V56.4375C76.125 56.7856 75.9867 57.1194 75.7406 57.3656C75.4944 57.6117 75.1606 57.75 74.8125 57.75H73.5V59.0625H70.875V57.75H68.25V55.125H73.5V53.8125H69.5625C69.2144 53.8125 68.8806 53.6742 68.6344 53.4281C68.3883 53.1819 68.25 52.8481 68.25 52.5V48.5625C68.25 48.2144 68.3883 47.8806 68.6344 47.6344C68.8806 47.3883 69.2144 47.25 69.5625 47.25H70.875V45.9375H73.5V47.25ZM65.625 48.5625H55.125V45.9375H65.625V48.5625ZM65.625 53.8125H55.125V51.1875H65.625V53.8125ZM65.625 59.0625H55.125V56.4375H65.625V59.0625ZM55.125 61.6875H76.125V64.3125H55.125V61.6875ZM55.125 66.9375H76.125V69.5625H55.125V66.9375Z" fill="#FF5900"/>
</svg>
