<svg width="104" height="104" viewBox="0 0 104 104" fill="none" xmlns="http://www.w3.org/2000/svg">
<circle cx="52" cy="52" r="50.25" fill="white" fill-opacity="0.3" stroke="#FF5900" stroke-width="2.5"/>
<path fill-rule="evenodd" clip-rule="evenodd" d="M46.8702 46.284C46.8702 46.2825 46.8702 46.2826 46.8702 46.284V46.284ZM55.6474 41.5388C57.5282 43.4196 58.6915 46.018 58.6915 48.8882C58.6915 51.7585 57.5282 54.357 55.6474 56.2378C53.7667 58.1185 51.1682 59.2818 48.298 59.2818C45.4278 59.2818 42.8293 58.1185 40.9485 56.2378C39.0677 54.357 37.9044 51.7586 37.9044 48.8882C37.9044 46.0179 39.0677 43.4195 40.9485 41.5388C42.8292 39.6581 45.4277 38.4948 48.298 38.4948C51.1683 38.4948 53.7668 39.6581 55.6474 41.5388ZM48.298 36.2416C51.7901 36.2416 54.9519 37.6572 57.2405 39.9458C59.5292 42.2345 60.9447 45.3961 60.9447 48.8882C60.9447 52.3804 59.529 55.5421 57.2405 57.8308C54.9518 60.1195 51.7901 61.535 48.298 61.535C44.8059 61.535 41.6441 60.1194 39.3554 57.8308C37.0667 55.5421 35.6512 52.3805 35.6512 48.8882C35.6512 45.396 37.0669 42.2344 39.3554 39.9458C41.6441 37.6571 44.8058 36.2416 48.298 36.2416ZM44.8262 76.5403C44.2041 76.5403 43.6997 76.0359 43.6997 75.4137C43.6997 74.7916 44.2041 74.2871 44.8262 74.2871H51.7698C52.3919 74.2871 52.8964 74.7916 52.8964 75.4137C52.8964 76.0359 52.3919 76.5403 51.7698 76.5403H44.8262ZM65.2475 71.424H31.3483V77.0841C31.3483 77.5659 31.5462 78.0048 31.8651 78.3236C32.1839 78.6424 32.6228 78.8403 33.1046 78.8403H63.4913C63.9731 78.8403 64.412 78.6424 64.7308 78.3236C65.0497 78.0048 65.2475 77.5659 65.2475 77.0841V71.424ZM68.8056 58.658H63.9782V63.4854H68.8056V58.658ZM67.5007 56.4048H69.9322C70.5543 56.4048 71.0587 56.9093 71.0587 57.5314V64.6118C71.0587 65.234 70.5543 65.7384 69.9322 65.7384H67.5007V70.2975V70.2998V77.0841C67.5007 78.1878 67.0499 79.1905 66.3237 79.9166C65.5976 80.6428 64.5949 81.0935 63.4912 81.0935H33.1046C32.0009 81.0935 30.9982 80.6428 30.272 79.9166C29.5459 79.1905 29.0952 78.1878 29.0952 77.0841V27.9157C29.0952 26.812 29.5459 25.8093 30.272 25.0831C30.9982 24.357 32.0009 23.9062 33.1046 23.9062H63.4913C64.595 23.9062 65.5977 24.357 66.3239 25.0831C67.05 25.8093 67.5009 26.812 67.5009 27.9157L67.5007 56.4048ZM62.8517 56.4048C62.2296 56.4048 61.7252 56.9093 61.7252 57.5314V64.6118C61.7252 65.234 62.2296 65.7384 62.8517 65.7384H65.2477V69.1709H31.3483V27.9157C31.3483 27.4339 31.5462 26.995 31.8651 26.6762C32.1839 26.3573 32.6228 26.1594 33.1046 26.1594H63.4913C63.9731 26.1594 64.412 26.3573 64.7308 26.6762C65.0497 26.995 65.2475 27.4339 65.2475 27.9157V56.4048H62.8517ZM81.6517 46.8941H75.0386V53.5071H81.6517V46.8941ZM73.912 44.6409H82.7783C83.4004 44.6409 83.9048 45.1453 83.9048 45.7675V54.6337C83.9048 55.2558 83.4004 55.7603 82.7783 55.7603H73.912C73.2899 55.7603 72.7855 55.2558 72.7855 54.6337V45.7675C72.7855 45.1453 73.2899 44.6409 73.912 44.6409ZM74.9531 36.6137H71.7564V39.8103H74.9531V36.6137ZM70.6298 34.3605C70.0077 34.3605 69.5032 34.8649 69.5032 35.4871V40.9369C69.5032 41.5591 70.0077 42.0635 70.6298 42.0635H76.0797C76.7018 42.0635 77.2063 41.5591 77.2063 40.9369V35.4871C77.2063 34.8649 76.7018 34.3605 76.0797 34.3605H70.6298ZM59.1823 31.5535H57.4053V33.3305H59.1823V31.5535ZM56.2789 29.3003C55.6567 29.3003 55.1523 29.8048 55.1523 30.4269V34.457C55.1523 35.0791 55.6567 35.5836 56.2789 35.5836H60.3089C60.9311 35.5836 61.4355 35.0791 61.4355 34.457V30.4269C61.4355 29.8048 60.9311 29.3003 60.3089 29.3003H56.2789ZM49.4246 55.8364C49.4246 56.4586 48.9202 56.963 48.298 56.963C47.6758 56.963 47.1714 56.4586 47.1714 55.8364V54.9383C46.6094 54.7575 46.1064 54.4451 45.6988 54.0375C45.0335 53.3722 44.6219 52.4532 44.6219 51.4382C44.6219 50.8161 45.1264 50.3116 45.7485 50.3116C46.3707 50.3116 46.8751 50.8161 46.8751 51.4382C46.8751 51.8313 47.0344 52.1871 47.2919 52.4446C47.549 52.7017 47.9041 52.8609 48.2966 52.8613H48.2981H48.2998C48.6894 52.861 49.0399 52.7034 49.2946 52.4486C49.5577 52.1856 49.7213 51.8248 49.7259 51.4295C49.7363 50.527 48.9037 50.2799 48.0551 50.0282C46.3865 49.533 44.6855 49.0284 44.6266 46.3609C44.6233 46.2102 44.6216 46.3906 44.6216 46.2842C44.6216 45.2913 45.0322 44.3944 45.6908 43.7405C46.1001 43.3343 46.6072 43.0228 47.1716 42.8425V41.9406C47.1716 41.3184 47.6761 40.814 48.2982 40.814C48.9204 40.814 49.4248 41.3184 49.4248 41.9406V42.8385C49.9869 43.0194 50.49 43.3318 50.8978 43.7395C51.5631 44.4047 51.9747 45.3239 51.9747 46.3389C51.9747 46.961 51.4702 47.4655 50.8481 47.4655C50.2259 47.4655 49.7215 46.961 49.7215 46.3389C49.7215 45.9458 49.5622 45.59 49.3047 45.3325C49.0476 45.0754 48.6924 44.9162 48.2998 44.9157H48.2981H48.2957C48.2621 44.9157 48.2509 44.9153 48.2512 44.9148C48.2424 44.9144 48.2334 44.914 48.2247 44.9134C47.8575 44.9312 47.522 45.0884 47.2752 45.3335C47.0286 45.5783 46.8747 45.9135 46.8747 46.2841C46.8747 46.3894 46.8713 46.295 46.8706 46.2841L46.8709 46.3167C46.8935 47.3388 47.7998 47.6078 48.6888 47.8716C50.3603 48.3676 52.0001 48.8542 51.9703 51.4469C51.9586 52.4637 51.548 53.3812 50.8876 54.0414C50.4821 54.447 49.9831 54.7578 49.4247 54.9381L49.4246 55.8364Z" fill="#FF5900"/>
</svg>
