<svg width="104" height="104" viewBox="0 0 104 104" fill="none" xmlns="http://www.w3.org/2000/svg">
<circle cx="52" cy="52" r="50.25" fill="white" fill-opacity="0.3" stroke="#FF5900" stroke-width="2.5"/>
<path d="M63 50.9999H62.72C62.9 50.4199 63 49.8699 63 49.3799C63 45.9299 60.22 43.1299 56.81 43.1299C55.42 43.1299 54.07 43.5999 53 44.4499C51.93 43.5999 50.59 43.1299 49.19 43.1299C45.78 43.1299 43 45.9299 43 49.3799C43 49.8699 43.1 50.4199 43.28 50.9999H43C42.45 50.9999 42 51.4499 42 51.9999C42 52.5499 42.45 52.9999 43 52.9999H44.14C45.78 56.0199 49.02 59.3399 52.63 60.7999C52.75 60.8499 52.88 60.8699 53.01 60.8699C53.14 60.8699 53.27 60.8499 53.39 60.7999C56.99 59.3399 60.23 56.0199 61.88 52.9999H63.02C63.57 52.9999 64.02 52.5499 64.02 51.9999C64.02 51.4499 63.57 50.9999 63.02 50.9999H63ZM53 58.7899C50.33 57.5799 47.94 55.1999 46.48 52.9999H49.09C49.43 52.9999 49.75 52.8199 49.93 52.5399L50.89 51.0299L53.1 55.4499C53.26 55.7599 53.56 55.9699 53.91 55.9999C53.94 55.9999 53.96 55.9999 53.99 55.9999C54.31 55.9999 54.61 55.8499 54.8 55.5899L56.67 52.9999H59.51C58.05 55.1999 55.66 57.5799 52.99 58.7899H53ZM60.61 50.9999H56.17C55.85 50.9999 55.55 51.1499 55.36 51.4099L54.16 53.0699L51.9 48.5499C51.74 48.2299 51.42 48.0199 51.06 47.9999C50.71 47.9899 50.36 48.1599 50.16 48.4599L48.55 50.9999H45.4C45.15 50.3799 45.01 49.8199 45.01 49.3799C45.01 47.0399 46.89 45.1299 49.2 45.1299C50.37 45.1299 51.49 45.6299 52.26 46.4899C52.64 46.9099 53.37 46.9099 53.75 46.4899C54.52 45.6299 55.64 45.1299 56.81 45.1299C59.12 45.1299 61 47.0399 61 49.3799C61 49.8299 60.86 50.3899 60.61 50.9999Z" fill="#FF5900"/>
<path d="M80 49C78.7 49 77.6 49.84 77.18 51H68V45H76C76.55 45 77 44.55 77 44V40.82C78.16 40.41 79 39.31 79 38C79 36.35 77.65 35 76 35C74.35 35 73 36.35 73 38C73 39.3 73.84 40.4 75 40.82V43H68V42C68 39.24 65.76 37 63 37H59V31.82C60.16 31.41 61 30.31 61 29C61 27.35 59.65 26 58 26C56.35 26 55 27.35 55 29C55 30.3 55.84 31.4 57 31.82V37H49V31.82C50.16 31.41 51 30.31 51 29C51 27.35 49.65 26 48 26C46.35 26 45 27.35 45 29C45 30.3 45.84 31.4 47 31.82V37H43C40.24 37 38 39.24 38 42V43H31V40.82C32.16 40.41 33 39.31 33 38C33 36.35 31.65 35 30 35C28.35 35 27 36.35 27 38C27 39.3 27.84 40.4 29 40.82V44C29 44.55 29.45 45 30 45H38V51H28.82C28.41 49.84 27.31 49 26 49C24.35 49 23 50.35 23 52C23 53.65 24.35 55 26 55C27.3 55 28.4 54.16 28.82 53H38V59H30C29.45 59 29 59.45 29 60V63.18C27.84 63.59 27 64.69 27 66C27 67.65 28.35 69 30 69C31.65 69 33 67.65 33 66C33 64.7 32.16 63.6 31 63.18V61H38V62C38 64.76 40.24 67 43 67H47V72.18C45.84 72.59 45 73.69 45 75C45 76.65 46.35 78 48 78C49.65 78 51 76.65 51 75C51 73.7 50.16 72.6 49 72.18V67H57V72.18C55.84 72.59 55 73.69 55 75C55 76.65 56.35 78 58 78C59.65 78 61 76.65 61 75C61 73.7 60.16 72.6 59 72.18V67H63C65.76 67 68 64.76 68 62V61H75V63.18C73.84 63.59 73 64.69 73 66C73 67.65 74.35 69 76 69C77.65 69 79 67.65 79 66C79 64.7 78.16 63.6 77 63.18V60C77 59.45 76.55 59 76 59H68V53H77.18C77.59 54.16 78.69 55 80 55C81.65 55 83 53.65 83 52C83 50.35 81.65 49 80 49ZM76 37C76.55 37 77 37.45 77 38C77 38.55 76.55 39 76 39C75.45 39 75 38.55 75 38C75 37.45 75.45 37 76 37ZM30 39C29.45 39 29 38.55 29 38C29 37.45 29.45 37 30 37C30.55 37 31 37.45 31 38C31 38.55 30.55 39 30 39ZM26 53C25.45 53 25 52.55 25 52C25 51.45 25.45 51 26 51C26.55 51 27 51.45 27 52C27 52.55 26.55 53 26 53ZM30 67C29.45 67 29 66.55 29 66C29 65.45 29.45 65 30 65C30.55 65 31 65.45 31 66C31 66.55 30.55 67 30 67ZM58 28C58.55 28 59 28.45 59 29C59 29.55 58.55 30 58 30C57.45 30 57 29.55 57 29C57 28.45 57.45 28 58 28ZM48 28C48.55 28 49 28.45 49 29C49 29.55 48.55 30 48 30C47.45 30 47 29.55 47 29C47 28.45 47.45 28 48 28ZM48 76C47.45 76 47 75.55 47 75C47 74.45 47.45 74 48 74C48.55 74 49 74.45 49 75C49 75.55 48.55 76 48 76ZM58 76C57.45 76 57 75.55 57 75C57 74.45 57.45 74 58 74C58.55 74 59 74.45 59 75C59 75.55 58.55 76 58 76ZM66 62C66 63.65 64.65 65 63 65H43C41.35 65 40 63.65 40 62V42C40 40.35 41.35 39 43 39H63C64.65 39 66 40.35 66 42V62ZM76 65C76.55 65 77 65.45 77 66C77 66.55 76.55 67 76 67C75.45 67 75 66.55 75 66C75 65.45 75.45 65 76 65ZM80 53C79.45 53 79 52.55 79 52C79 51.45 79.45 51 80 51C80.55 51 81 51.45 81 52C81 52.55 80.55 53 80 53Z" fill="#FF5900"/>
</svg>
