<svg width="104" height="104" viewBox="0 0 104 104" fill="none" xmlns="http://www.w3.org/2000/svg">
<circle cx="52" cy="52" r="50.25" fill="white" fill-opacity="0.3" stroke="#FF5900" stroke-width="2.5"/>
<path d="M82.9586 72.7875C82.9586 72.6859 82.9383 72.5742 82.8977 72.4727C82.8977 72.4523 82.8875 72.432 82.8773 72.4016C82.8773 72.3914 82.8773 72.3711 82.8672 72.3609L77.9008 62.418V34.2344C77.9008 31.4313 75.6258 29.1562 72.8227 29.1562H61.8133C61.2547 29.1562 60.7977 29.6133 60.7977 30.1719C60.7977 30.7305 61.2547 31.1875 61.8133 31.1875H72.8227C74.4984 31.1875 75.8695 32.5586 75.8695 34.2344V61.6562H29.1406V34.2344C29.1406 32.5586 30.5117 31.1875 32.1875 31.1875H43.1969C43.7555 31.1875 44.2125 30.7305 44.2125 30.1719C44.2125 29.6133 43.7555 29.1562 43.1969 29.1562H32.1875C29.3844 29.1562 27.1094 31.4313 27.1094 34.2344V62.4281L22.143 72.3711C22.143 72.3711 22.143 72.4016 22.1328 72.4117C22.1328 72.432 22.1227 72.4523 22.1125 72.4828C22.0719 72.5844 22.0516 72.6859 22.0516 72.7875C22.0516 72.7977 22.0516 72.818 22.0516 72.8281C22.0516 72.8281 22.0516 72.8484 22.0516 72.8586C22.0516 72.8789 22.0516 72.8992 22.0516 72.9297C22.1024 75.682 24.357 77.9164 27.1195 77.9164H77.9008C80.6633 77.9164 82.918 75.6922 82.9688 72.9398C82.9688 72.9195 82.9688 72.8891 82.9688 72.8688V72.8484C82.9688 72.8383 82.9688 72.8281 82.9688 72.8078L82.9586 72.7875ZM43.3594 75.875H27.1094C25.7891 75.875 24.6516 75.0219 24.2352 73.8438H43.3594V75.875ZM47.4219 75.875H45.3906V73.8438H47.4219V75.875ZM55.5469 75.875H49.4531V73.8438H55.5469V75.875ZM59.6094 75.875H57.5781V73.8438H59.6094V75.875ZM56.5625 71.8125H24.6922L28.7547 63.6875H76.2453L80.3078 71.8125H56.5625ZM77.8906 75.875H61.6406V73.8438H80.7649C80.3484 75.0219 79.2109 75.875 77.8906 75.875Z" fill="#FF5900"/>
<path d="M33.2031 53.4094C33.2031 55.7148 35.082 57.5938 37.3875 57.5938H67.6227C69.9281 57.5938 71.807 55.7148 71.807 53.4094C71.807 52.6375 71.5938 51.8758 71.1875 51.2156L56.3391 27.0844C55.5773 25.8352 54.2367 25.0938 52.7742 25.0938H52.2461C50.8039 25.0938 49.443 25.8555 48.6812 27.0844L33.8328 51.2258C33.4266 51.8859 33.2133 52.6477 33.2133 53.4195L33.2031 53.4094ZM35.5492 52.282L50.3977 28.1508C50.7836 27.5211 51.4844 27.125 52.2258 27.125H52.7539C53.5055 27.125 54.1961 27.5109 54.582 28.1508L69.4305 52.282C69.6437 52.6172 69.7453 53.0133 69.7453 53.4094C69.7453 54.5977 68.7805 55.5625 67.5922 55.5625H37.357C36.1688 55.5625 35.2039 54.5977 35.2039 53.4094C35.2039 53.0133 35.3156 52.6172 35.5187 52.282H35.5492Z" fill="#FF5900"/>
<path d="M54.8765 35.9508C54.4703 35.5039 53.8914 35.25 53.2922 35.25H51.7078C51.1086 35.25 50.5297 35.5039 50.1234 35.9508C49.7172 36.3977 49.5242 36.9969 49.5851 37.5961L50.3773 45.5078C50.489 46.6047 51.4031 47.4375 52.5 47.4375C53.5969 47.4375 54.5211 46.6148 54.6226 45.5078L55.4148 37.5961C55.4758 36.9969 55.2726 36.3977 54.8664 35.9508H54.8765ZM52.6117 45.3047C52.6015 45.4164 52.4086 45.4164 52.3984 45.3047L51.6062 37.393L51.7078 37.2711H53.2922L53.3937 37.393L52.6015 45.3047H52.6117Z" fill="#FF5900"/>
<path d="M52.5 52.5156C53.6218 52.5156 54.5312 51.6062 54.5312 50.4844C54.5312 49.3625 53.6218 48.4531 52.5 48.4531C51.3782 48.4531 50.4688 49.3625 50.4688 50.4844C50.4688 51.6062 51.3782 52.5156 52.5 52.5156Z" fill="#FF5900"/>
</svg>
