<svg width="160" height="24" viewBox="0 0 160 24" fill="none" xmlns="http://www.w3.org/2000/svg">
<path d="M30.8954 3.86426C29.1873 5.07318 27.2056 5.83882 25.1284 6.09239C22.5473 6.39778 20.3399 7.30173 19.0365 9.66301C17.661 12.1525 17.771 14.6714 19.4897 16.9313C21.1926 19.1741 23.5538 20.1306 26.3622 19.4892C29.1083 18.8614 30.7928 17.0522 31.4842 14.3587C31.924 12.6485 32.2294 10.898 32.7143 9.20004C32.9464 8.3877 33.4558 7.65476 33.8638 6.8351C36.5415 9.73997 36.9031 16.2594 33.1174 20.3016C28.9336 24.7725 21.9047 25.1365 17.468 21.087C12.8994 16.9166 12.5732 10.0527 16.7669 5.48039C20.8542 1.02658 27.5312 1.1976 30.8954 3.86426Z" fill="#F16825"/>
<path d="M24.8894 16.6282C22.952 16.6282 21.4629 15.3065 21.1881 13.33C21.0756 12.4349 21.3056 11.5302 21.8321 10.7975C22.3586 10.0649 23.1427 9.55833 24.027 9.37951C27.2531 8.72109 30.0713 7.34072 32.4106 5.01732C33.4135 4.02174 34.1391 2.89424 34.4359 1.49556C34.6521 0.480441 35.4058 -0.107129 36.2817 0.0162483C37.1575 0.139626 37.7744 0.627029 37.8893 1.55786C38.0114 2.51923 37.4495 3.29858 36.3965 3.50136C34.7144 3.8263 33.4501 4.76201 32.3654 6.008C30.4023 8.25323 29.0525 10.7843 28.5309 13.7466C28.2194 15.4812 26.701 16.6234 24.8894 16.6282Z" fill="white"/>
<path d="M71.9874 14.7458C71.7809 16.7406 72.0668 17.0582 73.904 17.0668C75.9652 17.0668 78.0252 17.07 80.0839 17.0766C80.1775 17.0897 80.2698 17.1106 80.36 17.1389V18.8234C79.627 18.8234 78.8672 18.8356 78.1062 18.8234C76.1187 18.7867 74.1214 18.8417 72.1462 18.6658C70.4934 18.518 69.8582 17.7228 69.7861 16.0712C69.7263 14.6982 69.7373 13.3215 69.7764 11.9472C69.8326 10.0013 70.6534 9.19138 72.7655 9.03502C73.7696 8.96051 74.7848 9.02281 75.8744 9.02281V10.766C75.1854 10.766 74.4904 10.766 73.7977 10.766C72.0949 10.7782 71.7541 11.1862 72.0081 13.0344H80.305V14.7446L71.9874 14.7458Z" fill="white"/>
<path d="M46.5321 8.46338H48.5844C48.5844 11.1423 48.6699 13.7796 48.5514 16.4035C48.4818 17.961 47.6963 18.6268 45.8139 18.7526C44.0684 18.8521 42.3178 18.8141 40.5783 18.639C39.1124 18.5046 38.4723 17.702 38.3611 16.2337C38.3135 15.6022 38.3245 14.9633 38.3367 14.3281C38.3831 11.9192 39.2162 11.0775 41.6435 11.0225C43.1924 10.9883 44.7426 10.9957 46.2915 10.9822C46.3754 10.9614 46.4572 10.9328 46.5358 10.8967L46.5321 8.46338ZM46.4808 12.7792H42.8882C40.5563 12.7804 40.1898 13.1933 40.3999 15.5142C40.4085 15.6144 40.4353 15.7133 40.4414 15.8123C40.4891 16.5697 40.8946 16.9972 41.6532 17.0143C42.8992 17.0412 44.1525 17.1047 45.3851 16.985C45.7784 16.9459 46.3795 16.4072 46.4308 16.0346C46.5749 14.9902 46.4808 13.9164 46.4808 12.7792Z" fill="white"/>
<path d="M127.041 11.0238V8.46948H129.055C129.055 11.1569 129.146 13.8309 129.021 16.4902C128.95 17.9903 128.166 18.6304 126.316 18.7526C124.548 18.8747 122.752 18.7868 120.982 18.6304C119.671 18.5193 118.997 17.7546 118.88 16.4499C118.787 15.4501 118.785 14.444 118.872 13.4437C119.019 11.808 120.041 11.0665 122.113 11.025C123.689 10.9944 125.271 11.0238 127.041 11.0238ZM126.968 12.7791H123.376C121.041 12.7791 120.67 13.1847 120.883 15.5069C120.893 15.6058 120.918 15.7048 120.925 15.805C120.972 16.5587 121.372 16.9923 122.134 17.0094C123.379 17.0375 124.632 17.101 125.866 16.9813C126.259 16.9434 126.864 16.4072 126.915 16.0358C127.056 14.9951 126.963 13.9262 126.963 12.7791H126.968Z" fill="white"/>
<path d="M10.5714 9.02646V10.766C8.73904 10.766 6.96412 10.766 5.18552 10.766C4.57474 10.766 3.96396 10.7586 3.36662 10.8099C2.62391 10.871 2.19392 11.2815 2.18537 12.051C2.17193 13.1504 2.14995 14.2608 2.16705 15.3664C2.18659 16.6918 2.53352 17.0387 3.85524 17.0533C5.74378 17.0741 7.63353 17.0533 9.52206 17.0533H10.5653V18.8099C10.0596 18.8099 9.57215 18.8185 9.08475 18.8099C6.82974 18.766 4.56497 18.8099 2.32219 18.6401C0.798901 18.5339 0.138036 17.7337 0.058635 16.1824C-0.019545 14.6768 -0.019545 13.1682 0.058635 11.6626C0.14903 9.9524 0.933272 9.15594 2.89876 9.05822C5.41518 8.93118 7.94014 9.02646 10.5714 9.02646Z" fill="white"/>
<path d="M111.548 18.8869C110.577 18.8124 109.602 18.7648 108.635 18.6573C107.454 18.518 106.688 17.8339 106.578 16.6588C106.453 15.5301 106.448 14.3914 106.562 13.2616C106.737 11.8202 107.442 11.2057 109.25 11.0873C110.986 10.9749 112.747 11.0616 114.484 11.2094C115.763 11.3194 116.439 12.1366 116.549 13.4265C116.603 14.161 116.618 14.8979 116.591 15.6339C116.54 17.8804 115.736 18.6878 113.474 18.81C112.835 18.8429 112.193 18.81 111.553 18.81L111.548 18.8869ZM111.583 12.7791C108.617 12.7791 108.311 13.0845 108.552 15.6742C108.631 16.5171 109.041 16.9911 109.878 17.0179C110.955 17.0534 112.035 17.0509 113.114 17.0301C114.057 17.013 114.476 16.4902 114.542 15.5643C114.715 13.1517 114.389 12.7779 111.989 12.7767L111.583 12.7791Z" fill="white"/>
<path d="M61.1025 15.7988H53.1624C52.9608 16.9618 53.1538 17.233 54.1897 17.2586C55.0314 17.2794 55.8742 17.2586 56.8087 17.2586V18.9346C55.3502 18.7929 53.855 18.7514 52.4038 18.4728C51.3374 18.2676 51.0027 17.2904 50.9379 16.3021C50.883 15.502 50.9049 14.6958 50.9172 13.892C50.9465 12.0596 51.4644 11.3023 53.2797 11.1606C55.3148 11.0018 57.3804 11.0567 59.4204 11.1948C60.6176 11.2766 61.0317 11.8764 61.1367 13.0613C61.1893 13.6599 61.1612 14.2658 61.1599 14.8692C61.1514 15.1282 61.1257 15.3921 61.1025 15.7988ZM58.9587 14.4075C59.1212 12.6301 59.0808 12.5751 57.4476 12.5751C56.4704 12.5751 55.4931 12.5751 54.5159 12.5751C53.1587 12.5751 52.8277 13.0247 53.1636 14.4075H58.9587Z" fill="white"/>
<path d="M141.597 15.7988H133.657C133.413 16.9165 133.618 17.2305 134.635 17.2574C135.503 17.2818 136.374 17.2574 137.307 17.2574V18.8674C135.999 18.799 134.725 18.8136 133.477 18.6426C132.133 18.4581 131.498 17.6812 131.4 16.3216C131.346 15.5203 131.368 14.7141 131.379 13.9103C131.406 12.0401 131.934 11.2717 133.812 11.1312C135.849 10.9773 137.911 11.0909 139.957 11.1862C140.968 11.2326 141.524 11.9326 141.574 12.9294C141.635 13.8565 141.597 14.7813 141.597 15.7988ZM139.421 14.405C139.63 12.6765 139.543 12.5727 137.955 12.5727C136.978 12.5727 136 12.5727 135.023 12.5727C133.646 12.5727 133.34 12.9709 133.629 14.405H139.421Z" fill="white"/>
<path d="M92.4391 18.7721H90.4382C90.4382 17.3307 90.4504 15.9344 90.4382 14.537C90.4236 13.1774 90.0571 12.8133 88.6902 12.784C87.8131 12.7657 86.9348 12.7547 86.0589 12.784C84.8643 12.8317 84.5015 13.1981 84.4807 14.3867C84.4563 15.8208 84.4807 17.2549 84.4807 18.7513H82.2635C82.3564 16.7761 82.3332 14.7739 82.5836 12.8072C82.7595 11.4342 84.0495 11.1093 85.2161 11.0689C86.9298 11.0097 88.6455 11.0537 90.3539 11.2009C91.6402 11.312 92.3597 12.056 92.4184 13.2849C92.5027 15.0867 92.4391 16.8909 92.4391 18.7721Z" fill="white"/>
<path d="M155.836 11.0457V12.5824C155.059 12.5824 154.324 12.5971 153.59 12.5824C153.014 12.5678 152.711 12.8549 152.869 13.3704C152.953 13.6452 153.34 14.0068 153.602 14.019C155.016 14.0825 156.437 14.0263 157.855 14.0593C158.661 14.0776 159.696 14.085 159.884 14.9999C160.089 15.9979 160.006 17.112 159.762 18.11C159.681 18.4484 158.758 18.7696 158.21 18.7855C155.785 18.8588 153.356 18.8173 150.84 18.8173V17.2635H155.871C156.311 17.2635 156.751 17.2439 157.188 17.2635C157.883 17.3001 158.067 16.8689 158.082 16.3119C158.101 15.7267 157.876 15.3713 157.191 15.3859C155.773 15.4152 154.347 15.4751 152.937 15.3591C152.268 15.3029 151.193 15.0036 151.066 14.5858C150.796 13.6928 150.938 12.6313 151.102 11.6797C151.149 11.4097 151.849 11.1019 152.269 11.0689C153.436 10.9944 154.613 11.0457 155.836 11.0457Z" fill="white"/>
<path d="M104.321 11.053V12.7791C102.533 12.7791 100.786 12.7217 99.0478 12.8096C98.4089 12.8414 97.3144 13.1224 97.246 13.4534C97.0432 14.4514 97.1507 15.5484 97.3511 16.5647C97.4012 16.809 98.2709 17.024 98.7693 17.0399C100.585 17.0961 102.402 17.0619 104.293 17.0619V18.9162C101.761 18.8075 99.2188 18.7525 96.6865 18.5583C95.8315 18.4936 95.1889 17.8315 95.0985 16.9471C94.9764 15.7255 94.8847 14.4734 95.013 13.2592C95.1645 11.8177 95.8889 11.1972 97.7004 11.0848C99.8724 10.9504 102.063 11.053 104.321 11.053Z" fill="white"/>
<path d="M148.801 11.03V12.7793C148.404 12.7793 148.046 12.7793 147.688 12.7793C146.281 12.8049 145.952 13.1237 145.943 14.4894C145.935 15.8869 145.943 17.2856 145.943 18.7478H143.723C143.836 16.7493 143.817 14.724 144.112 12.7451C144.31 11.4074 145.643 11.19 146.8 11.0349C147.414 10.9616 148.052 11.03 148.801 11.03Z" fill="white"/>
</svg>
