<svg width="104" height="104" viewBox="0 0 104 104" fill="none" xmlns="http://www.w3.org/2000/svg">
<circle cx="52" cy="52" r="50.25" fill="white" fill-opacity="0.3" stroke="#FF5900" stroke-width="2.5"/>
<path fill-rule="evenodd" clip-rule="evenodd" d="M54.2686 46.3927H50.7314L49.9477 48.837L49.9467 48.8366C49.8269 49.2086 49.5275 49.5144 49.1224 49.6247C48.6274 49.7598 48.139 49.9262 47.6598 50.122C47.6412 50.1308 47.6223 50.1393 47.6032 50.1473C47.1103 50.3514 46.6288 50.5884 46.161 50.8559L46.1601 50.8544C45.8197 51.0486 45.391 51.0722 45.0167 50.8794L42.7346 49.7053L40.2347 52.2053L41.3778 54.4271C41.5888 54.7859 41.6068 55.2446 41.3854 55.6316C41.1132 56.1078 40.876 56.5881 40.6765 57.0698C40.4765 57.5523 40.3063 58.0443 40.1679 58.5432C40.0771 58.9421 39.7841 59.2842 39.3664 59.4184L36.9222 60.2021V63.7394L39.3664 64.523L39.3661 64.5241C39.738 64.6439 40.0439 64.9433 40.1542 65.3484C40.295 65.8644 40.4699 66.3733 40.6766 66.8722C40.876 67.3537 41.1131 67.8339 41.3853 68.3098L41.3837 68.3107C41.578 68.6511 41.6016 69.0798 41.4087 69.454L40.2347 71.7361L42.7346 74.2361L44.9564 73.0931C45.3152 72.8821 45.7738 72.8641 46.161 73.0855C46.6372 73.3577 47.1176 73.5949 47.5991 73.7944C48.0816 73.9944 48.5736 74.1646 49.0724 74.3029C49.4713 74.3937 49.8134 74.6867 49.9476 75.1043L50.7313 77.5487H54.2685L55.0521 75.1043L55.0532 75.1047C55.173 74.7327 55.4724 74.4269 55.8775 74.3166C56.3935 74.1758 56.9024 74.0009 57.4014 73.7941C57.8828 73.5946 58.3629 73.3576 58.8389 73.0855L58.8398 73.0871C59.1801 72.8928 59.6089 72.8692 59.9831 73.062L62.2654 74.2361L64.7653 71.7361L63.6224 69.5143C63.4114 69.1556 63.3933 68.6969 63.6147 68.3098C63.8869 67.8337 64.124 67.3535 64.3235 66.8718C64.5236 66.3891 64.6937 65.8971 64.8321 65.3981C64.9229 64.9992 65.2159 64.6571 65.6335 64.523L68.0779 63.7394V60.2022L65.6335 59.4185L65.6339 59.4175C65.262 59.2977 64.9561 58.9983 64.8458 58.5932C64.705 58.0771 64.5301 57.5683 64.3233 57.0694C64.1238 56.588 63.8868 56.1078 63.6147 55.6319L63.6163 55.631C63.422 55.2906 63.3984 54.8619 63.5913 54.4877L64.7653 52.2055L62.2654 49.7056L60.0434 50.8485C59.6847 51.0595 59.2261 51.0776 58.8389 50.8562C58.3628 50.584 57.8824 50.3468 57.4009 50.1473C56.9182 49.9473 56.4263 49.7771 55.9273 49.6387C55.5283 49.5479 55.1863 49.2549 55.0521 48.8372L54.2685 46.393L54.2686 46.3927ZM56.5124 57.9582C57.539 58.9848 58.1742 60.4035 58.1742 61.9705C58.1742 63.5375 57.5391 64.9562 56.5124 65.9829C55.4857 67.0096 54.067 67.6447 52.5 67.6447C50.933 67.6447 49.5143 67.0096 48.4876 65.9829C47.4608 64.9562 46.8258 63.5375 46.8258 61.9705C46.8258 60.4035 47.461 58.985 48.4876 57.9582C49.5144 56.9315 50.933 56.2964 52.5 56.2964C54.067 56.2964 55.4857 56.9314 56.5124 57.9582ZM52.5 53.8954C54.7298 53.8954 56.7485 54.7993 58.2098 56.2607C59.6712 57.722 60.5751 59.7407 60.5751 61.9705C60.5751 64.2003 59.6712 66.219 58.2098 67.6804C56.7485 69.1417 54.7297 70.0456 52.5 70.0456C50.2703 70.0456 48.2515 69.1417 46.7902 67.6804C45.3288 66.219 44.4249 64.2003 44.4249 61.9705C44.4249 59.7407 45.3288 57.722 46.7902 56.2608C48.2515 54.7995 50.2703 53.8955 52.5 53.8955V53.8954ZM34.5213 63.2677H33.9392C30.6633 63.2677 27.686 61.9284 25.5283 59.7707C23.3706 57.613 22.0312 54.6357 22.0312 51.3598C22.0312 48.0839 23.3706 45.1067 25.5283 42.9489C27.686 40.7912 30.6633 39.4518 33.9392 39.4518V39.4565H34.3557C34.6462 35.6251 36.3206 32.1802 38.8802 29.6205C41.7035 26.7971 45.6039 25.0508 49.9119 25.0508C53.1487 25.0508 56.1602 26.0422 58.6598 27.7389C60.8421 29.2202 62.629 31.2404 63.8297 33.6081C64.1505 33.4477 64.4834 33.3088 64.8265 33.1933C65.6215 32.9256 66.4656 32.7804 67.3355 32.7804C69.5089 32.7804 71.4769 33.6616 72.9015 35.0862C74.226 36.4107 75.0806 38.2049 75.1941 40.1973C77.3441 40.9995 79.2046 42.4067 80.5653 44.2088C82.0723 46.2047 82.9682 48.6834 82.9682 51.3597C82.9682 54.6356 81.6289 57.6129 79.4712 59.7706C77.3135 61.9283 74.3362 63.2676 71.0603 63.2676H70.4781V64.6108C70.4781 65.18 70.0817 65.6569 69.5499 65.7801L66.9649 66.6089C66.8369 67.0096 66.6937 67.4004 66.5361 67.7809C66.3728 68.175 66.1971 68.5552 66.0098 68.9206L67.2949 71.4184C67.5396 71.8932 67.4359 72.4556 67.0774 72.814L67.0792 72.8158L63.345 76.5499C62.9458 76.9491 62.3353 77.0083 61.8735 76.7276L59.4497 75.4806C59.0844 75.6679 58.7043 75.8435 58.3105 76.0066C57.9299 76.1643 57.5388 76.3075 57.138 76.4356L56.2793 79.114C56.1163 79.6218 55.646 79.9453 55.1397 79.9452V79.9487H49.8589C49.2896 79.9487 48.8128 79.5524 48.6895 79.0206L47.8607 76.4356C47.4602 76.3076 47.0693 76.1645 46.689 76.0068C46.2948 75.8436 45.9146 75.6679 45.5491 75.4805L43.0513 76.7655C42.5765 77.0103 42.0141 76.9066 41.6557 76.548L41.6539 76.5498L37.9197 72.8156C37.5205 72.4165 37.4614 71.806 37.7421 71.3441L38.989 68.9205C38.8018 68.5551 38.6262 68.1751 38.4629 67.781C38.3052 67.4004 38.162 67.0094 38.0339 66.6086L35.3555 65.7499C34.8477 65.5869 34.5242 65.1167 34.5243 64.6104H34.5208V63.2672L34.5213 63.2677ZM70.4786 60.8668V59.33H70.475C70.475 58.8239 70.1517 58.3535 69.6439 58.1905L66.9654 57.3318C66.8373 56.931 66.6941 56.54 66.5364 56.1594C66.3732 55.7654 66.1976 55.3855 66.0103 55.0201L67.2573 52.5963C67.538 52.1345 67.4788 51.5241 67.0797 51.1248L63.3455 47.3907L63.3437 47.3925C62.9853 47.034 62.4229 46.9303 61.9481 47.175L59.4502 48.46C59.0848 48.2728 58.7046 48.0971 58.3104 47.9337C57.9299 47.776 57.539 47.6328 57.1385 47.5049L56.3097 44.9198C56.1863 44.388 55.7096 43.9917 55.1404 43.9917H49.8595V43.9952C49.3533 43.9952 48.883 44.3186 48.72 44.8264L47.8613 47.5049C47.4813 47.6262 47.1099 47.7613 46.7481 47.9095C46.7267 47.9169 46.7053 47.9251 46.684 47.9338C46.2955 48.0948 45.9168 48.2704 45.5489 48.4595L43.1258 47.213C42.6639 46.9323 42.0535 46.9915 41.6543 47.3906L37.9201 51.1248L37.9218 51.1266C37.5633 51.485 37.4596 52.0474 37.7044 52.5222L38.9894 55.02C38.8021 55.3855 38.6264 55.7656 38.463 56.1598C38.3054 56.5402 38.1623 56.9311 38.0343 57.3317L35.4493 58.1604C34.9175 58.2838 34.5212 58.7605 34.5212 59.3298V60.8665H33.9391C31.3259 60.8665 28.9493 59.7966 27.2257 58.0729C25.502 56.3493 24.4321 53.9727 24.4321 51.3595C24.4321 48.7463 25.502 46.3699 27.2257 44.6461C28.9493 42.9225 31.3259 41.8525 33.9391 41.8525V41.8478H35.4051C35.44 41.8509 35.4753 41.8525 35.5109 41.8525C36.1738 41.8525 36.7113 41.315 36.7113 40.6521C36.7113 37.0067 38.1888 33.7066 40.5776 31.3178C42.9663 28.9291 46.2665 27.4516 49.9119 27.4516C52.6625 27.4516 55.2116 28.2873 57.3186 29.7176C59.494 31.1942 61.2056 33.3031 62.1893 35.7801H62.1898C62.2289 35.8782 62.2817 35.9731 62.3488 36.0614C62.7475 36.5871 63.4971 36.69 64.0229 36.2912C64.4889 35.9368 65.0158 35.6548 65.5863 35.4627C66.1284 35.2802 66.7165 35.1811 67.3356 35.1811C68.8465 35.1811 70.2143 35.7934 71.2041 36.7834C72.1941 37.7733 72.8064 39.1411 72.8064 40.6519C72.8064 40.7949 72.8086 40.7939 72.8078 40.8208C72.8073 40.8361 72.8054 40.8728 72.802 40.9289C72.7368 41.5015 73.0932 42.0537 73.6656 42.2166C75.6758 42.7931 77.4195 44.0201 78.6522 45.6527C79.8533 47.2436 80.5674 49.2214 80.5674 51.3593C80.5674 53.9725 79.4976 56.349 77.7738 58.0727C76.0502 59.7963 73.6736 60.8663 71.0604 60.8663H70.4782L70.4786 60.8668Z" fill="#FF5900"/>
</svg>
