<svg width="718" height="541" viewBox="0 0 718 541" fill="none" xmlns="http://www.w3.org/2000/svg">
<path d="M697.836 165.402C686.513 151.002 671.598 140.245 655.662 131.504C638.39 122.044 619.278 116.312 602.523 105.685C588.858 97.0162 576.687 85.1937 570.306 70.304C565.363 58.7695 564.07 45.8814 558.739 34.5197C548.206 12.0556 523.505 1.11151 499.781 0.1035C474.188 -0.990907 446.757 6.72755 423.464 16.9228C397.541 28.2701 374.852 44.7726 350.107 58.1503C326.096 71.1248 300.029 79.5056 272.813 81.9105C233.943 85.3521 195.016 80.6576 156.276 77.9936C106.701 74.5952 26.7917 74.3792 6.20015 131.764C-2.39286 155.697 3.84354 183.474 14.0172 205.881C26.8636 234.177 48.6909 256.526 62.1983 284.174C75.562 311.563 82.9193 343.877 67.0984 371.684C54.4963 393.817 31.6774 407.482 17.0492 428.06C-3.8442 457.436 -8.68673 498.808 20.5697 524.829C24.9668 528.745 36.0458 536.622 45.7452 541C92.6763 537.616 215.22 535.211 359.002 535.211C492.826 535.211 608.228 537.299 661.41 540.323C674.112 520.134 684.157 495.942 672.862 472.988C660.792 448.451 629.797 435.836 626.937 406.359C625.888 395.487 629.351 384.629 634.165 374.823C651.768 338.88 684.832 313.579 703.441 278.083C722.868 241.003 724.621 199.43 697.851 165.388L697.836 165.402Z" fill="white"/>
<path d="M386.26 394.71H332V475.38H386.26V394.71Z" fill="#201D33"/>
<g style="mix-blend-mode:multiply" opacity="0.4">
<path d="M386.26 394.71H332V419.32H386.26V394.71Z" fill="#201D33"/>
</g>
<path d="M546.6 167.74H171.66C169.009 167.74 166.86 169.889 166.86 172.54V406.11C166.86 408.761 169.009 410.91 171.66 410.91H546.6C549.251 410.91 551.4 408.761 551.4 406.11V172.54C551.4 169.889 549.251 167.74 546.6 167.74Z" fill="#DEDEF9"/>
<path d="M546.61 168.27H171.65C169.297 168.27 167.39 170.177 167.39 172.53V406.11C167.39 408.463 169.297 410.37 171.65 410.37H546.61C548.963 410.37 550.87 408.463 550.87 406.11V172.53C550.87 170.177 548.963 168.27 546.61 168.27Z" fill="#201D33"/>
<path d="M546.62 172.37H171.64V389.26H546.62V172.37Z" fill="#201D33"/>
<path d="M537.03 183.13H181.23V378.5H537.03V183.13Z" stroke="white" stroke-width="0.25" stroke-miterlimit="10"/>
<path d="M182.62 181.74H179.84V184.52H182.62V181.74Z" fill="white"/>
<path d="M182.62 377.12H179.84V379.9H182.62V377.12Z" fill="white"/>
<path d="M538.42 181.74H535.64V184.52H538.42V181.74Z" fill="white"/>
<path d="M538.42 377.12H535.64V379.9H538.42V377.12Z" fill="white"/>
<path d="M528.38 186.93H189.87C187.423 186.93 185.44 188.913 185.44 191.36V369.44C185.44 371.887 187.423 373.87 189.87 373.87H528.38C530.827 373.87 532.81 371.887 532.81 369.44V191.36C532.81 188.913 530.827 186.93 528.38 186.93Z" fill="#322F51"/>
<path d="M528.38 186.93H189.87C187.42 186.93 185.44 188.92 185.44 191.36V201.92H532.81V191.36C532.81 188.91 530.82 186.93 528.38 186.93Z" fill="#FF5900"/>
<path d="M192.18 197.77C193.389 197.77 194.37 196.789 194.37 195.58C194.37 194.37 193.389 193.39 192.18 193.39C190.97 193.39 189.99 194.37 189.99 195.58C189.99 196.789 190.97 197.77 192.18 197.77Z" fill="#FFB266"/>
<path d="M202.71 195.58C202.71 194.37 201.73 193.39 200.52 193.39C199.31 193.39 198.33 194.37 198.33 195.58C198.33 196.79 199.31 197.77 200.52 197.77C201.73 197.77 202.71 196.79 202.71 195.58Z" fill="#ED5160"/>
<path d="M208.87 197.77C210.079 197.77 211.06 196.789 211.06 195.58C211.06 194.37 210.079 193.39 208.87 193.39C207.66 193.39 206.68 194.37 206.68 195.58C206.68 196.789 207.66 197.77 208.87 197.77Z" fill="#DEDEF9"/>
<path d="M502.38 265.68H347.68V364.44H502.38V265.68Z" fill="white"/>
<path d="M500.67 267.4H349.4V362.71H500.67V267.4Z" fill="#FFEADF"/>
<path d="M469.67 299.95C466.92 299.95 464.56 301.57 463.48 303.91C463.33 303.91 463.19 303.89 463.04 303.89C460.22 303.89 457.81 305.61 456.79 308.07C456.6 308.05 456.42 308.03 456.22 308.03C453.64 308.03 451.54 310.12 451.54 312.71C451.54 315.3 453.63 317.39 456.22 317.39H483.15C485.71 317.39 487.79 315.31 487.79 312.75C487.79 310.19 485.71 308.11 483.15 308.11C482.96 308.11 482.76 308.13 482.58 308.15C481.58 305.66 479.15 303.9 476.3 303.9C476.15 303.9 476.01 303.9 475.86 303.92C474.78 301.58 472.41 299.96 469.66 299.96L469.67 299.95Z" fill="white"/>
<path d="M465.14 333.45C465.14 311.3 447.18 293.34 425.03 293.34C402.88 293.34 384.92 311.3 384.92 333.45C384.92 355.6 465.14 355.6 465.14 333.45Z" fill="#FFD766"/>
<path d="M383.15 302.43C380.4 302.43 378.04 304.05 376.96 306.39C376.81 306.39 376.67 306.37 376.52 306.37C373.7 306.37 371.29 308.09 370.27 310.55C370.08 310.53 369.9 310.51 369.7 310.51C367.12 310.51 365.02 312.6 365.02 315.19C365.02 317.78 367.11 319.87 369.7 319.87H396.63C399.19 319.87 401.27 317.79 401.27 315.23C401.27 312.67 399.19 310.59 396.63 310.59C396.44 310.59 396.24 310.61 396.06 310.63C395.06 308.14 392.63 306.38 389.78 306.38C389.63 306.38 389.49 306.38 389.34 306.4C388.26 304.06 385.89 302.44 383.15 302.44V302.43Z" fill="white"/>
<path d="M404.88 279.69C403.63 279.69 402.54 280.43 402.05 281.5C401.98 281.5 401.92 281.5 401.85 281.5C400.56 281.5 399.46 282.29 399 283.41C398.92 283.4 398.83 283.39 398.74 283.39C397.56 283.39 396.6 284.35 396.6 285.53C396.6 286.71 397.56 287.67 398.74 287.67H411.05C412.22 287.67 413.17 286.72 413.17 285.55C413.17 284.38 412.22 283.43 411.05 283.43C410.96 283.43 410.87 283.43 410.79 283.45C410.34 282.31 409.22 281.51 407.92 281.51C407.85 281.51 407.79 281.51 407.72 281.51C407.22 280.44 406.14 279.7 404.89 279.7L404.88 279.69Z" fill="white"/>
<path d="M432.78 277.28C432.11 277.28 431.54 277.67 431.27 278.24C431.23 278.24 431.2 278.24 431.16 278.24C430.47 278.24 429.89 278.66 429.64 279.26C429.59 279.26 429.55 279.26 429.5 279.26C428.87 279.26 428.36 279.77 428.36 280.4C428.36 281.03 428.87 281.54 429.5 281.54H436.05C436.67 281.54 437.18 281.03 437.18 280.41C437.18 279.79 436.67 279.28 436.05 279.28C436 279.28 435.96 279.28 435.91 279.28C435.67 278.67 435.08 278.25 434.38 278.25C434.34 278.25 434.31 278.25 434.27 278.25C434.01 277.68 433.43 277.29 432.76 277.29L432.78 277.28Z" fill="white"/>
<path d="M483.39 283.42C482.72 283.42 482.15 283.81 481.88 284.38C481.84 284.38 481.81 284.38 481.77 284.38C481.08 284.38 480.5 284.8 480.25 285.4C480.2 285.4 480.16 285.4 480.11 285.4C479.48 285.4 478.97 285.91 478.97 286.54C478.97 287.17 479.48 287.68 480.11 287.68H486.66C487.28 287.68 487.79 287.17 487.79 286.55C487.79 285.93 487.28 285.42 486.66 285.42C486.61 285.42 486.57 285.42 486.52 285.42C486.28 284.81 485.69 284.39 484.99 284.39C484.95 284.39 484.92 284.39 484.88 284.39C484.62 283.82 484.04 283.43 483.37 283.43L483.39 283.42Z" fill="white"/>
<path d="M365.81 288.4C365.14 288.4 364.57 288.79 364.3 289.36C364.26 289.36 364.23 289.36 364.19 289.36C363.5 289.36 362.92 289.78 362.67 290.38C362.62 290.38 362.58 290.38 362.53 290.38C361.9 290.38 361.39 290.89 361.39 291.52C361.39 292.15 361.9 292.66 362.53 292.66H369.08C369.7 292.66 370.21 292.15 370.21 291.53C370.21 290.91 369.7 290.4 369.08 290.4C369.03 290.4 368.99 290.4 368.94 290.4C368.7 289.79 368.11 289.37 367.41 289.37C367.37 289.37 367.34 289.37 367.3 289.37C367.04 288.8 366.46 288.41 365.79 288.41L365.81 288.4Z" fill="white"/>
<path d="M500.67 333.2H349.4V362.71H500.67V333.2Z" fill="#FF5900"/>
<path d="M504.64 263.76H345.41V366.34H504.64V263.76Z" stroke="white" stroke-width="0.25" stroke-miterlimit="10"/>
<path d="M346.81 262.08H344.03V264.86H346.81V262.08Z" fill="white"/>
<path d="M346.81 364.96H344.03V367.74H346.81V364.96Z" fill="white"/>
<path d="M506.04 262.08H503.26V264.86H506.04V262.08Z" fill="white"/>
<path d="M506.04 364.96H503.26V367.74H506.04V364.96Z" fill="white"/>
<path d="M389.35 214.68H347.68V256.6H389.35V214.68Z" fill="#FFD766"/>
<g style="mix-blend-mode:multiply" opacity="0.1">
<path d="M389.35 214.68H347.68V231.03H389.35V214.68Z" fill="#201D33"/>
</g>
<path d="M445.86 214.68H404.19V256.6H445.86V214.68Z" fill="#FF5900"/>
<path d="M502.38 214.68H460.71V256.6H502.38V214.68Z" fill="#ED5160"/>
<path d="M504.64 212.12H345.41V259.13H504.64V212.12Z" stroke="white" stroke-width="0.25" stroke-miterlimit="10"/>
<path d="M346.81 210.43H344.03V213.21H346.81V210.43Z" fill="white"/>
<path d="M346.81 257.74H344.03V260.52H346.81V257.74Z" fill="white"/>
<path d="M506.04 210.43H503.26V213.21H506.04V210.43Z" fill="white"/>
<path d="M506.04 257.74H503.26V260.52H506.04V257.74Z" fill="white"/>
<path d="M368.52 241.57C374.341 241.57 379.06 236.851 379.06 231.03C379.06 225.209 374.341 220.49 368.52 220.49C362.699 220.49 357.98 225.209 357.98 231.03C357.98 236.851 362.699 241.57 368.52 241.57Z" fill="white"/>
<path d="M368.54 241.54C371.4 241.54 373.99 240.4 375.89 238.54C374.97 235.04 372.03 232.47 368.54 232.47C365.05 232.47 362.1 235.04 361.19 238.54C363.09 240.39 365.68 241.54 368.54 241.54Z" fill="#DEDEF9"/>
<g style="mix-blend-mode:multiply" opacity="0.1">
<path d="M368.54 232.48C367.48 232.48 366.46 232.72 365.54 233.15C366.34 233.71 367.42 233.99 368.51 233.99C369.6 233.99 370.71 233.73 371.5 233.14C370.59 232.72 369.59 232.48 368.53 232.48H368.54Z" fill="#201D33"/>
</g>
<path d="M373.06 229.32C373.06 226.81 371.02 224.77 368.51 224.77C366 224.77 363.96 226.81 363.96 229.32C363.96 231.83 366 233.87 368.51 233.87C371.02 233.87 373.06 231.83 373.06 229.32Z" fill="#DEDEF9"/>
<path d="M372 244.39H354.99C354.44 244.39 353.99 244.84 353.99 245.39C353.99 245.94 354.44 246.39 354.99 246.39H372C372.55 246.39 373 245.94 373 245.39C373 244.84 372.55 244.39 372 244.39Z" fill="#201D33"/>
<path d="M367.13 248.05H356.8C356.41 248.05 356.09 248.37 356.09 248.76C356.09 249.15 356.41 249.47 356.8 249.47H367.13C367.52 249.47 367.84 249.15 367.84 248.76C367.84 248.37 367.52 248.05 367.13 248.05Z" fill="white"/>
<path d="M380.29 248.05H369.96C369.57 248.05 369.25 248.37 369.25 248.76C369.25 249.15 369.57 249.47 369.96 249.47H380.29C380.68 249.47 381 249.15 381 248.76C381 248.37 380.68 248.05 380.29 248.05Z" fill="white"/>
<path d="M358.04 250.39H354.56C354.17 250.39 353.85 250.71 353.85 251.1C353.85 251.49 354.17 251.81 354.56 251.81H358.04C358.43 251.81 358.75 251.49 358.75 251.1C358.75 250.71 358.43 250.39 358.04 250.39Z" fill="white"/>
<path d="M365.28 250.39H360.34C359.95 250.39 359.63 250.71 359.63 251.1C359.63 251.49 359.95 251.81 360.34 251.81H365.28C365.67 251.81 365.99 251.49 365.99 251.1C365.99 250.71 365.67 250.39 365.28 250.39Z" fill="white"/>
<path d="M382.52 250.39H367.6C367.21 250.39 366.89 250.71 366.89 251.1C366.89 251.49 367.21 251.81 367.6 251.81H382.52C382.91 251.81 383.23 251.49 383.23 251.1C383.23 250.71 382.91 250.39 382.52 250.39Z" fill="white"/>
<path d="M382.1 244.39H376.36C375.81 244.39 375.36 244.84 375.36 245.39C375.36 245.94 375.81 246.39 376.36 246.39H382.1C382.65 246.39 383.1 245.94 383.1 245.39C383.1 244.84 382.65 244.39 382.1 244.39Z" fill="#201D33"/>
<g style="mix-blend-mode:multiply" opacity="0.1">
<path d="M445.86 214.68H404.19V231.03H445.86V214.68Z" fill="#201D33"/>
</g>
<path d="M425.03 241.57C430.851 241.57 435.57 236.851 435.57 231.03C435.57 225.209 430.851 220.49 425.03 220.49C419.209 220.49 414.49 225.209 414.49 231.03C414.49 236.851 419.209 241.57 425.03 241.57Z" fill="white"/>
<path d="M425.06 241.54C427.92 241.54 430.51 240.4 432.41 238.54C431.49 235.04 428.55 232.47 425.06 232.47C421.57 232.47 418.62 235.04 417.71 238.54C419.61 240.39 422.2 241.54 425.06 241.54Z" fill="#DEDEF9"/>
<g style="mix-blend-mode:multiply" opacity="0.1">
<path d="M425.06 232.48C424 232.48 422.98 232.72 422.06 233.15C422.86 233.71 423.94 233.99 425.03 233.99C426.12 233.99 427.23 233.73 428.02 233.14C427.11 232.72 426.11 232.48 425.05 232.48H425.06Z" fill="#201D33"/>
</g>
<path d="M429.58 229.32C429.58 226.81 427.54 224.77 425.03 224.77C422.52 224.77 420.48 226.81 420.48 229.32C420.48 231.83 422.52 233.87 425.03 233.87C427.54 233.87 429.58 231.83 429.58 229.32Z" fill="#DEDEF9"/>
<path d="M428.51 244.39H411.5C410.95 244.39 410.5 244.84 410.5 245.39C410.5 245.94 410.95 246.39 411.5 246.39H428.51C429.06 246.39 429.51 245.94 429.51 245.39C429.51 244.84 429.06 244.39 428.51 244.39Z" fill="#201D33"/>
<path d="M423.64 248.05H413.31C412.92 248.05 412.6 248.37 412.6 248.76C412.6 249.15 412.92 249.47 413.31 249.47H423.64C424.03 249.47 424.35 249.15 424.35 248.76C424.35 248.37 424.03 248.05 423.64 248.05Z" fill="white"/>
<path d="M436.81 248.05H426.48C426.09 248.05 425.77 248.37 425.77 248.76C425.77 249.15 426.09 249.47 426.48 249.47H436.81C437.2 249.47 437.52 249.15 437.52 248.76C437.52 248.37 437.2 248.05 436.81 248.05Z" fill="white"/>
<path d="M414.56 250.39H411.08C410.69 250.39 410.37 250.71 410.37 251.1C410.37 251.49 410.69 251.81 411.08 251.81H414.56C414.95 251.81 415.27 251.49 415.27 251.1C415.27 250.71 414.95 250.39 414.56 250.39Z" fill="white"/>
<path d="M421.79 250.39H416.85C416.46 250.39 416.14 250.71 416.14 251.1C416.14 251.49 416.46 251.81 416.85 251.81H421.79C422.18 251.81 422.5 251.49 422.5 251.1C422.5 250.71 422.18 250.39 421.79 250.39Z" fill="white"/>
<path d="M439.04 250.39H424.12C423.73 250.39 423.41 250.71 423.41 251.1C423.41 251.49 423.73 251.81 424.12 251.81H439.04C439.43 251.81 439.75 251.49 439.75 251.1C439.75 250.71 439.43 250.39 439.04 250.39Z" fill="white"/>
<path d="M438.61 244.39H432.87C432.32 244.39 431.87 244.84 431.87 245.39C431.87 245.94 432.32 246.39 432.87 246.39H438.61C439.16 246.39 439.61 245.94 439.61 245.39C439.61 244.84 439.16 244.39 438.61 244.39Z" fill="#201D33"/>
<g style="mix-blend-mode:multiply" opacity="0.1">
<path d="M502.38 214.68H460.71V231.03H502.38V214.68Z" fill="#201D33"/>
</g>
<path d="M481.55 241.57C487.371 241.57 492.09 236.851 492.09 231.03C492.09 225.209 487.371 220.49 481.55 220.49C475.729 220.49 471.01 225.209 471.01 231.03C471.01 236.851 475.729 241.57 481.55 241.57Z" fill="white"/>
<path d="M481.57 241.54C484.43 241.54 487.02 240.4 488.92 238.54C488 235.04 485.06 232.47 481.57 232.47C478.08 232.47 475.13 235.04 474.22 238.54C476.12 240.39 478.71 241.54 481.57 241.54Z" fill="#DEDEF9"/>
<g style="mix-blend-mode:multiply" opacity="0.1">
<path d="M481.57 232.48C480.51 232.48 479.49 232.72 478.57 233.15C479.37 233.71 480.45 233.99 481.54 233.99C482.63 233.99 483.74 233.73 484.53 233.14C483.62 232.72 482.62 232.48 481.56 232.48H481.57Z" fill="#201D33"/>
</g>
<path d="M486.09 229.32C486.09 226.81 484.05 224.77 481.54 224.77C479.03 224.77 476.99 226.81 476.99 229.32C476.99 231.83 479.03 233.87 481.54 233.87C484.05 233.87 486.09 231.83 486.09 229.32Z" fill="#DEDEF9"/>
<path d="M485.03 244.39H468.02C467.47 244.39 467.02 244.84 467.02 245.39C467.02 245.94 467.47 246.39 468.02 246.39H485.03C485.58 246.39 486.03 245.94 486.03 245.39C486.03 244.84 485.58 244.39 485.03 244.39Z" fill="#201D33"/>
<path d="M480.16 248.05H469.83C469.44 248.05 469.12 248.37 469.12 248.76C469.12 249.15 469.44 249.47 469.83 249.47H480.16C480.55 249.47 480.87 249.15 480.87 248.76C480.87 248.37 480.55 248.05 480.16 248.05Z" fill="white"/>
<path d="M493.32 248.05H482.99C482.6 248.05 482.28 248.37 482.28 248.76C482.28 249.15 482.6 249.47 482.99 249.47H493.32C493.71 249.47 494.03 249.15 494.03 248.76C494.03 248.37 493.71 248.05 493.32 248.05Z" fill="white"/>
<path d="M471.07 250.39H467.59C467.2 250.39 466.88 250.71 466.88 251.1C466.88 251.49 467.2 251.81 467.59 251.81H471.07C471.46 251.81 471.78 251.49 471.78 251.1C471.78 250.71 471.46 250.39 471.07 250.39Z" fill="white"/>
<path d="M478.31 250.39H473.37C472.98 250.39 472.66 250.71 472.66 251.1C472.66 251.49 472.98 251.81 473.37 251.81H478.31C478.7 251.81 479.02 251.49 479.02 251.1C479.02 250.71 478.7 250.39 478.31 250.39Z" fill="white"/>
<path d="M495.55 250.39H480.63C480.24 250.39 479.92 250.71 479.92 251.1C479.92 251.49 480.24 251.81 480.63 251.81H495.55C495.94 251.81 496.26 251.49 496.26 251.1C496.26 250.71 495.94 250.39 495.55 250.39Z" fill="white"/>
<path d="M495.13 244.39H489.39C488.84 244.39 488.39 244.84 488.39 245.39C488.39 245.94 488.84 246.39 489.39 246.39H495.13C495.68 246.39 496.13 245.94 496.13 245.39C496.13 244.84 495.68 244.39 495.13 244.39Z" fill="#201D33"/>
<path d="M211.97 212.37V364.44H321.76V243.67L290.46 212.37H211.97Z" fill="#FFEADF"/>
<path d="M290.46 243.67H321.76L290.46 212.37V243.67Z" fill="white"/>
<path d="M240.08 284.52H239.023C238.96 284.216 238.851 283.949 238.695 283.719C238.541 283.489 238.354 283.295 238.132 283.139C237.913 282.98 237.67 282.861 237.403 282.781C237.136 282.702 236.858 282.662 236.568 282.662C236.04 282.662 235.561 282.795 235.132 283.063C234.706 283.33 234.366 283.723 234.114 284.243C233.864 284.763 233.739 285.401 233.739 286.156C233.739 286.912 233.864 287.55 234.114 288.07C234.366 288.589 234.706 288.983 235.132 289.25C235.561 289.517 236.04 289.651 236.568 289.651C236.858 289.651 237.136 289.611 237.403 289.531C237.67 289.452 237.913 289.334 238.132 289.178C238.354 289.018 238.541 288.824 238.695 288.594C238.851 288.361 238.96 288.094 239.023 287.793H240.08C240 288.239 239.855 288.638 239.645 288.99C239.435 289.342 239.173 289.642 238.861 289.889C238.548 290.134 238.197 290.32 237.808 290.447C237.422 290.575 237.009 290.639 236.568 290.639C235.824 290.639 235.162 290.457 234.582 290.094C234.003 289.73 233.547 289.213 233.214 288.543C232.882 287.872 232.716 287.077 232.716 286.156C232.716 285.236 232.882 284.44 233.214 283.77C233.547 283.099 234.003 282.582 234.582 282.219C235.162 281.855 235.824 281.673 236.568 281.673C237.009 281.673 237.422 281.737 237.808 281.865C238.197 281.993 238.548 282.18 238.861 282.428C239.173 282.672 239.435 282.97 239.645 283.322C239.855 283.672 240 284.071 240.08 284.52ZM241.787 281.793H243.049L246.015 289.037H246.117L249.083 281.793H250.344V290.52H249.355V283.889H249.27L246.543 290.52H245.588L242.861 283.889H242.776V290.52H241.787V281.793ZM257.236 283.974C257.185 283.543 256.977 283.207 256.614 282.969C256.25 282.73 255.804 282.611 255.276 282.611C254.889 282.611 254.551 282.673 254.261 282.798C253.974 282.923 253.75 283.095 253.588 283.314C253.429 283.533 253.349 283.781 253.349 284.06C253.349 284.293 253.405 284.493 253.516 284.661C253.629 284.825 253.774 284.963 253.95 285.074C254.126 285.182 254.311 285.271 254.504 285.342C254.697 285.411 254.875 285.466 255.037 285.509L255.923 285.747C256.151 285.807 256.403 285.889 256.682 285.994C256.963 286.099 257.232 286.243 257.487 286.425C257.746 286.604 257.959 286.834 258.126 287.115C258.294 287.396 258.378 287.741 258.378 288.151C258.378 288.622 258.254 289.048 258.007 289.429C257.763 289.81 257.405 290.112 256.933 290.337C256.464 290.561 255.895 290.673 255.224 290.673C254.599 290.673 254.058 290.572 253.601 290.371C253.146 290.169 252.788 289.888 252.527 289.527C252.268 289.166 252.122 288.747 252.088 288.27H253.179C253.207 288.599 253.318 288.872 253.511 289.088C253.707 289.301 253.955 289.46 254.253 289.565C254.554 289.668 254.878 289.719 255.224 289.719C255.628 289.719 255.99 289.653 256.311 289.523C256.632 289.389 256.886 289.205 257.074 288.969C257.261 288.73 257.355 288.452 257.355 288.134C257.355 287.844 257.274 287.608 257.112 287.426C256.95 287.244 256.737 287.097 256.473 286.983C256.209 286.869 255.923 286.77 255.616 286.685L254.543 286.378C253.861 286.182 253.321 285.902 252.923 285.538C252.526 285.175 252.327 284.699 252.327 284.111C252.327 283.622 252.459 283.196 252.723 282.832C252.99 282.466 253.348 282.182 253.797 281.98C254.249 281.776 254.753 281.673 255.31 281.673C255.872 281.673 256.372 281.774 256.81 281.976C257.247 282.175 257.594 282.447 257.849 282.794C258.108 283.141 258.244 283.534 258.259 283.974H257.236Z" fill="#322F51"/>
<path d="M271.93 300.96H232.12C230.66 300.96 229.48 302.14 229.48 303.6C229.48 305.06 230.66 306.24 232.12 306.24H271.93C273.39 306.24 274.57 305.06 274.57 303.6C274.57 302.14 273.39 300.96 271.93 300.96Z" fill="#ED5160"/>
<path d="M301.61 300.96H282.78C281.32 300.96 280.14 302.14 280.14 303.6C280.14 305.06 281.32 306.24 282.78 306.24H301.61C303.07 306.24 304.25 305.06 304.25 303.6C304.25 302.14 303.07 300.96 301.61 300.96Z" fill="#ED5160"/>
<path d="M274.46 312.2H225.04C224.4 312.2 223.87 312.72 223.87 313.37C223.87 314.01 224.39 314.54 225.04 314.54H274.46C275.1 314.54 275.63 314.02 275.63 313.37C275.63 312.73 275.11 312.2 274.46 312.2Z" fill="white"/>
<path d="M260.2 318.41H233.49C232.85 318.41 232.32 318.93 232.32 319.58C232.32 320.22 232.84 320.75 233.49 320.75H260.2C260.84 320.75 261.37 320.23 261.37 319.58C261.37 318.94 260.85 318.41 260.2 318.41Z" fill="white"/>
<path d="M296.91 318.41H264.32C263.68 318.41 263.15 318.93 263.15 319.58C263.15 320.22 263.67 320.75 264.32 320.75H296.91C297.55 320.75 298.08 320.23 298.08 319.58C298.08 318.94 297.56 318.41 296.91 318.41Z" fill="white"/>
<path d="M260.2 337.16H233.49C232.85 337.16 232.32 337.68 232.32 338.33C232.32 338.97 232.84 339.5 233.49 339.5H260.2C260.84 339.5 261.37 338.98 261.37 338.33C261.37 337.69 260.85 337.16 260.2 337.16Z" fill="white"/>
<path d="M296.91 337.16H264.32C263.68 337.16 263.15 337.68 263.15 338.33C263.15 338.97 263.67 339.5 264.32 339.5H296.91C297.55 339.5 298.08 338.98 298.08 338.33C298.08 337.69 297.56 337.16 296.91 337.16Z" fill="white"/>
<path d="M277.77 324.62H228.35C227.71 324.62 227.18 325.14 227.18 325.79C227.18 326.43 227.7 326.96 228.35 326.96H277.77C278.41 326.96 278.94 326.44 278.94 325.79C278.94 325.15 278.42 324.62 277.77 324.62Z" fill="white"/>
<path d="M304.61 324.62H282.42C281.78 324.62 281.25 325.14 281.25 325.79C281.25 326.43 281.77 326.96 282.42 326.96H304.61C305.25 326.96 305.78 326.44 305.78 325.79C305.78 325.15 305.26 324.62 304.61 324.62Z" fill="white"/>
<path d="M262.32 330.84H238.81C238.17 330.84 237.64 331.36 237.64 332.01C237.64 332.65 238.16 333.18 238.81 333.18H262.32C262.96 333.18 263.49 332.66 263.49 332.01C263.49 331.37 262.97 330.84 262.32 330.84Z" fill="white"/>
<path d="M280.08 330.84H266.65C266.01 330.84 265.48 331.36 265.48 332.01C265.48 332.65 266 333.18 266.65 333.18H280.08C280.72 333.18 281.25 332.66 281.25 332.01C281.25 331.37 280.73 330.84 280.08 330.84Z" fill="white"/>
<path d="M291.03 330.84H284.61C283.97 330.84 283.44 331.36 283.44 332.01C283.44 332.65 283.96 333.18 284.61 333.18H291.03C291.67 333.18 292.2 332.66 292.2 332.01C292.2 331.37 291.68 330.84 291.03 330.84Z" fill="white"/>
<path d="M267.52 345.97H291.03C291.67 345.97 292.2 345.45 292.2 344.8C292.2 344.16 291.68 343.63 291.03 343.63H267.52C266.88 343.63 266.35 344.15 266.35 344.8C266.35 345.44 266.87 345.97 267.52 345.97Z" fill="white"/>
<path d="M249.76 345.97H263.19C263.83 345.97 264.36 345.45 264.36 344.8C264.36 344.16 263.84 343.63 263.19 343.63H249.76C249.12 343.63 248.59 344.15 248.59 344.8C248.59 345.44 249.11 345.97 249.76 345.97Z" fill="white"/>
<path d="M238.81 345.97H245.23C245.87 345.97 246.4 345.45 246.4 344.8C246.4 344.16 245.88 343.63 245.23 343.63H238.81C238.17 343.63 237.64 344.15 237.64 344.8C237.64 345.44 238.16 345.97 238.81 345.97Z" fill="white"/>
<path d="M308.69 312.2H279.58C278.94 312.2 278.41 312.72 278.41 313.37C278.41 314.01 278.93 314.54 279.58 314.54H308.69C309.33 314.54 309.86 314.02 309.86 313.37C309.86 312.73 309.34 312.2 308.69 312.2Z" fill="white"/>
<g opacity="0.05">
<path d="M201.69 172.37L171.64 202.42V389.27H192.03L408.93 172.37H201.69Z" fill="white"/>
<path d="M425.43 172.37L208.54 389.27H244.38L461.28 172.37H425.43Z" fill="white"/>
<path d="M477.78 172.37L260.89 389.27H468.13L546.62 310.77V172.37H477.78Z" fill="white"/>
<path d="M520.48 389.27L546.62 363.13V327.28L484.63 389.27H520.48Z" fill="white"/>
</g>
<path d="M546.47 172.52V389.11H171.79V172.52H546.47ZM546.62 172.37H171.64V389.26H546.62V172.37Z" fill="#FF5900"/>
<path d="M167.39 406.11C167.39 408.47 169.3 410.38 171.66 410.38H546.6C548.96 410.38 550.87 408.47 550.87 406.11V392.88H167.39V406.11Z" fill="white"/>
<path d="M434.85 470.95H283.41C280.96 470.95 278.98 472.94 278.98 475.38C278.98 477.83 280.97 479.81 283.41 479.81H434.85C437.3 479.81 439.28 477.82 439.28 475.38C439.28 472.93 437.29 470.95 434.85 470.95Z" fill="#322F51"/>
<path d="M283.41 471.25H434.85C437.25 471.25 439.19 473.15 439.27 475.53C439.27 475.48 439.29 475.43 439.29 475.38C439.29 472.93 437.3 470.95 434.86 470.95H283.42C280.97 470.95 278.99 472.94 278.99 475.38C278.99 475.43 279 475.48 279.01 475.53C279.09 473.15 281.03 471.25 283.43 471.25H283.41Z" fill="#FF5900"/>
<path d="M434.85 477.59H283.41C281.35 477.59 279.63 476.17 279.13 474.27C279.04 474.63 278.97 474.99 278.97 475.38C278.97 477.83 280.96 479.81 283.4 479.81H434.84C437.29 479.81 439.27 477.82 439.27 475.38C439.27 474.99 439.21 474.63 439.11 474.27C438.61 476.18 436.9 477.59 434.83 477.59H434.85Z" fill="#201D33"/>
<path d="M604.53 479.81H113.73C111.67 479.81 110 481.48 110 483.54C110 485.6 111.67 487.27 113.73 487.27H163.14C165.2 487.27 166.87 488.94 166.87 491C166.87 493.06 165.2 494.73 163.14 494.73H150.91C148.85 494.73 147.18 496.4 147.18 498.46C147.18 500.52 148.85 502.19 150.91 502.19H544.96C547.02 502.19 548.69 500.52 548.69 498.46C548.69 496.4 547.02 494.73 544.96 494.73H514.52C512.46 494.73 510.79 493.06 510.79 491C510.79 488.94 512.46 487.27 514.52 487.27H604.54C606.6 487.27 608.27 485.6 608.27 483.54C608.27 481.48 606.6 479.81 604.54 479.81H604.53Z" fill="white"/>
<path d="M570.34 494.72H558.54C556.48 494.72 554.81 496.39 554.81 498.45C554.81 500.51 556.48 502.18 558.54 502.18H570.34C572.4 502.18 574.07 500.51 574.07 498.45C574.07 496.39 572.4 494.72 570.34 494.72Z" fill="white"/>
<path d="M187.2 323.99C194.11 323.99 200.45 328.04 203.36 334.31C204.09 335.89 205.67 336.88 207.39 336.88C207.49 336.88 207.58 336.88 207.68 336.88C208.13 336.85 208.49 336.84 208.83 336.84C216.06 336.84 222.47 341.18 225.16 347.9C225.84 349.6 227.49 350.7 229.29 350.7C229.47 350.7 229.65 350.69 229.84 350.67C230.36 350.61 230.78 350.58 231.16 350.58C237.05 350.58 241.83 355.37 241.83 361.25C241.83 367.13 237.04 371.92 231.16 371.92H143.37C137.42 371.92 132.57 367.08 132.57 361.12C132.57 355.16 137.41 350.32 143.37 350.32C143.76 350.32 144.17 350.35 144.68 350.41C144.86 350.43 145.04 350.44 145.22 350.44C147 350.44 148.63 349.37 149.33 347.69C152.06 341.09 158.44 336.83 165.58 336.83C165.91 336.83 166.28 336.84 166.73 336.87C166.83 336.87 166.92 336.87 167.02 336.87C168.74 336.87 170.32 335.87 171.05 334.3C173.96 328.03 180.3 323.98 187.21 323.98M187.2 319.55C178.25 319.55 170.54 324.83 167.01 332.45C166.54 332.42 166.06 332.4 165.58 332.4C156.4 332.4 148.53 338.02 145.22 346.01C144.61 345.94 144 345.89 143.37 345.89C134.95 345.89 128.13 352.72 128.13 361.13C128.13 369.54 134.96 376.37 143.37 376.37H231.15C239.5 376.37 246.27 369.6 246.27 361.25C246.27 352.9 239.5 346.13 231.15 346.13C230.52 346.13 229.89 346.18 229.28 346.26C226.04 338.14 218.1 332.4 208.82 332.4C208.34 332.4 207.86 332.42 207.39 332.45C203.86 324.83 196.15 319.55 187.2 319.55Z" fill="white"/>
<path d="M535.38 223.26C540.97 223.26 546.11 226.54 548.46 231.62C549.05 232.9 550.33 233.7 551.72 233.7C551.8 233.7 551.87 233.7 551.95 233.7C552.31 233.68 552.61 233.67 552.88 233.67C558.74 233.67 563.93 237.19 566.1 242.63C566.65 244.01 567.98 244.89 569.44 244.89C569.59 244.89 569.73 244.89 569.88 244.86C570.3 244.81 570.64 244.78 570.95 244.78C575.72 244.78 579.59 248.66 579.59 253.42C579.59 258.18 575.71 262.06 570.95 262.06H499.87C495.05 262.06 491.13 258.14 491.13 253.32C491.13 248.5 495.05 244.58 499.87 244.58C500.18 244.58 500.52 244.6 500.93 244.65C501.08 244.67 501.22 244.68 501.36 244.68C502.8 244.68 504.12 243.81 504.68 242.46C506.89 237.12 512.06 233.66 517.84 233.66C518.11 233.66 518.41 233.67 518.77 233.69C518.85 233.69 518.93 233.69 519 233.69C520.39 233.69 521.67 232.88 522.26 231.61C524.62 226.53 529.75 223.25 535.35 223.25M535.38 219.66C528.13 219.66 521.89 223.94 519.03 230.1C518.65 230.08 518.26 230.06 517.87 230.06C510.43 230.06 504.06 234.61 501.39 241.08C500.9 241.02 500.4 240.98 499.9 240.98C493.08 240.98 487.56 246.51 487.56 253.32C487.56 260.13 493.09 265.66 499.9 265.66H570.98C577.74 265.66 583.22 260.18 583.22 253.42C583.22 246.66 577.74 241.18 570.98 241.18C570.47 241.18 569.96 241.22 569.47 241.28C566.84 234.7 560.42 230.06 552.91 230.06C552.52 230.06 552.13 230.08 551.75 230.1C548.89 223.93 542.65 219.66 535.4 219.66H535.38Z" fill="white"/>
<path d="M522.69 381.3C522.45 376.47 521.41 371.75 519.58 367.24L524.79 362.55L514.68 348.07L508.48 351.35C504.88 348.08 500.81 345.48 496.35 343.59L496.72 336.6L479.34 333.51L477.28 340.2C472.45 340.44 467.73 341.48 463.22 343.31L458.53 338.1L444.05 348.21L447.32 354.41C444.05 358.01 441.45 362.08 439.56 366.54L432.57 366.17L429.48 383.56L436.17 385.62C436.41 390.45 437.45 395.17 439.28 399.68L434.07 404.37L444.18 418.85L450.38 415.57C453.98 418.84 458.05 421.44 462.51 423.33L462.14 430.32L479.52 433.41L481.58 426.72C486.41 426.48 491.13 425.44 495.64 423.61L500.33 428.82L514.81 418.71L511.54 412.51C514.81 408.91 517.41 404.84 519.3 400.38L526.29 400.75L529.38 383.36L522.69 381.3ZM509.99 388.77C506.95 405.9 490.54 417.36 473.41 414.32C456.28 411.28 444.82 394.87 447.86 377.74C450.9 360.61 467.31 349.15 484.44 352.19C501.57 355.23 513.03 371.64 509.99 388.77Z" fill="#C65900"/>
<path d="M483.7 356.32C468.85 353.68 454.62 363.62 451.98 378.48C449.34 393.33 459.28 407.56 474.14 410.2C488.99 412.84 503.22 402.9 505.86 388.04C508.5 373.19 498.56 358.96 483.7 356.32Z" fill="#C65900"/>
<path d="M521.23 382.42C521.1 376.96 519.89 371.68 517.79 366.84L522.8 362.32L514.21 350.02L508.24 353.17C504.42 349.53 499.88 346.58 494.8 344.58L495.15 337.85L480.37 335.23L478.38 341.67C472.92 341.8 467.64 343.01 462.8 345.11L458.28 340.1L445.98 348.69L449.13 354.66C445.49 358.48 442.54 363.02 440.54 368.1L433.81 367.75L431.19 382.53L437.63 384.52C437.76 389.98 438.97 395.26 441.07 400.1L436.06 404.62L444.65 416.92L450.62 413.77C454.44 417.41 458.98 420.36 464.06 422.36L463.71 429.09L478.49 431.71L480.48 425.27C485.94 425.14 491.22 423.93 496.06 421.83L500.58 426.84L512.88 418.25L509.73 412.28C513.37 408.46 516.32 403.92 518.32 398.84L525.05 399.19L527.67 384.41L521.23 382.42ZM473.14 415.8C455.17 412.61 443.18 395.45 446.37 377.48C449.56 359.51 466.72 347.52 484.69 350.71C502.66 353.9 514.65 371.06 511.46 389.03C508.27 407 491.11 418.99 473.14 415.8Z" fill="white"/>
<path d="M504.624 386.216C506.256 372.027 496.076 359.203 481.888 357.571C467.699 355.939 454.874 366.119 453.243 380.307C451.611 394.496 461.79 407.321 475.979 408.952C490.168 410.584 502.992 400.405 504.624 386.216Z" fill="white"/>
<path d="M580.39 336.24L584.92 334.7L582.36 322.26L577.59 322.64C576.28 319.86 574.57 317.33 572.47 315.09L574.59 310.81L563.98 303.83L560.88 307.47C558 306.43 555 305.86 551.92 305.76L550.38 301.23L537.94 303.79L538.32 308.56C535.54 309.87 533 311.58 530.77 313.68L526.48 311.56L519.5 322.17L523.14 325.27C522.1 328.15 521.53 331.16 521.43 334.23L516.9 335.76L519.46 348.2L524.23 347.82C525.54 350.6 527.25 353.14 529.35 355.37L527.23 359.66L537.84 366.64L540.94 363C543.82 364.04 546.82 364.61 549.9 364.71L551.44 369.24L563.88 366.68L563.5 361.91C566.28 360.6 568.82 358.89 571.05 356.79L575.34 358.91L582.32 348.3L578.68 345.2C579.72 342.32 580.29 339.32 580.39 336.24ZM567.09 345.78C561.13 354.84 548.91 357.36 539.85 351.4C535.46 348.51 532.46 344.09 531.4 338.94C530.34 333.8 531.35 328.55 534.23 324.16C538.68 317.4 546.62 314.28 554.12 315.61C556.67 316.06 559.17 317.03 561.47 318.54C570.53 324.5 573.05 336.72 567.09 345.78Z" fill="#FFBB43"/>
<path d="M576.9 345.65C578.27 342.26 578.92 338.69 578.91 335.16L583.19 333.71L581.16 323.87L576.66 324.23C575.27 320.98 573.26 317.96 570.67 315.39L572.67 311.34L564.28 305.82L561.35 309.26C557.96 307.89 554.39 307.24 550.86 307.25L549.41 302.97L539.57 305L539.93 309.5C536.68 310.89 533.66 312.9 531.09 315.49L527.04 313.49L521.52 321.88L524.96 324.81C523.59 328.2 522.94 331.77 522.95 335.3L518.67 336.75L520.7 346.59L525.2 346.23C526.59 349.48 528.6 352.5 531.19 355.07L529.19 359.12L537.58 364.64L540.51 361.2C543.9 362.57 547.47 363.22 551 363.21L552.45 367.49L562.29 365.46L561.93 360.96C565.18 359.57 568.2 357.56 570.77 354.97L574.82 356.97L580.34 348.58L576.9 345.65ZM539.02 352.64C529.26 346.21 526.55 333.09 532.98 323.32C539.41 313.56 552.53 310.85 562.3 317.28C572.06 323.71 574.77 336.83 568.34 346.6C561.91 356.36 548.79 359.07 539.02 352.64Z" fill="#FFD766"/>
<path d="M310.7 142H254.03C250.821 142 248.22 144.601 248.22 147.81V187.68C248.22 190.889 250.821 193.49 254.03 193.49H310.7C313.909 193.49 316.51 190.889 316.51 187.68V147.81C316.51 144.601 313.909 142 310.7 142Z" fill="#FF5900"/>
<path d="M313.38 151.87H251.35V190.16H313.38V151.87Z" fill="white"/>
<path d="M274.6 168.67L266.05 171.61L274.6 174.54V179.34L260.21 174.12V169.1L274.6 163.88V168.67Z" fill="#FF5900"/>
<path d="M284.34 157.73H289.98L280.67 184.31H275.03L284.34 157.73Z" fill="#FF5900"/>
<path d="M304.52 169.1V174.12L290.13 179.34V174.54L298.68 171.61L290.13 168.67V163.88L304.52 169.1Z" fill="#FF5900"/>
<path d="M265.49 149.1C266.28 149.1 266.92 148.46 266.92 147.67C266.92 146.88 266.28 146.24 265.49 146.24C264.7 146.24 264.06 146.88 264.06 147.67C264.06 148.46 264.7 149.1 265.49 149.1Z" fill="#FF5900"/>
<path d="M259.14 149.1C259.93 149.1 260.57 148.46 260.57 147.67C260.57 146.88 259.93 146.24 259.14 146.24C258.35 146.24 257.71 146.88 257.71 147.67C257.71 148.46 258.35 149.1 259.14 149.1Z" fill="white"/>
<path d="M252.79 149.1C253.58 149.1 254.22 148.46 254.22 147.67C254.22 146.88 253.58 146.24 252.79 146.24C252 146.24 251.36 146.88 251.36 147.67C251.36 148.46 252 149.1 252.79 149.1Z" fill="#FFB266"/>
<path d="M387.48 142H330.81C327.601 142 325 144.601 325 147.81V187.68C325 190.889 327.601 193.49 330.81 193.49H387.48C390.689 193.49 393.29 190.889 393.29 187.68V147.81C393.29 144.601 390.689 142 387.48 142Z" fill="white"/>
<path d="M390.16 151.87H328.13V190.16H390.16V151.87Z" fill="#322F51"/>
<path d="M340.83 147.67C340.83 146.88 341.47 146.24 342.26 146.24C343.05 146.24 343.69 146.88 343.69 147.67C343.69 148.46 343.05 149.1 342.26 149.1C341.47 149.1 340.83 148.46 340.83 147.67Z" fill="#FF5900"/>
<path d="M335.91 149.1C336.7 149.1 337.34 148.46 337.34 147.67C337.34 146.88 336.7 146.24 335.91 146.24C335.12 146.24 334.48 146.88 334.48 147.67C334.48 148.46 335.12 149.1 335.91 149.1Z" fill="#ED5160"/>
<path d="M329.56 149.1C330.35 149.1 330.99 148.46 330.99 147.67C330.99 146.88 330.35 146.24 329.56 146.24C328.77 146.24 328.13 146.88 328.13 147.67C328.13 148.46 328.77 149.1 329.56 149.1Z" fill="#FFB266"/>
<path d="M364.16 159.71H335.94C335.02 159.71 334.27 160.46 334.27 161.38C334.27 162.3 335.02 163.05 335.94 163.05H364.16C365.08 163.05 365.83 162.3 365.83 161.38C365.83 160.46 365.08 159.71 364.16 159.71Z" fill="#FF5900"/>
<path d="M356.07 165.79H338.93C338.28 165.79 337.75 166.32 337.75 166.97C337.75 167.62 338.28 168.15 338.93 168.15H356.07C356.72 168.15 357.25 167.62 357.25 166.97C357.25 166.32 356.72 165.79 356.07 165.79Z" fill="white"/>
<path d="M377.91 165.79H360.77C360.12 165.79 359.59 166.32 359.59 166.97C359.59 167.62 360.12 168.15 360.77 168.15H377.91C378.56 168.15 379.09 167.62 379.09 166.97C379.09 166.32 378.56 165.79 377.91 165.79Z" fill="white"/>
<path d="M341.01 169.67H335.24C334.59 169.67 334.06 170.2 334.06 170.85C334.06 171.5 334.59 172.03 335.24 172.03H341.01C341.66 172.03 342.19 171.5 342.19 170.85C342.19 170.2 341.66 169.67 341.01 169.67Z" fill="white"/>
<path d="M353 169.67H344.81C344.16 169.67 343.63 170.2 343.63 170.85C343.63 171.5 344.16 172.03 344.81 172.03H353C353.65 172.03 354.18 171.5 354.18 170.85C354.18 170.2 353.65 169.67 353 169.67Z" fill="white"/>
<path d="M381.6 169.67H356.85C356.2 169.67 355.67 170.2 355.67 170.85C355.67 171.5 356.2 172.03 356.85 172.03H381.6C382.25 172.03 382.78 171.5 382.78 170.85C382.78 170.2 382.25 169.67 381.6 169.67Z" fill="white"/>
<path d="M360.77 180.39H377.91C378.56 180.39 379.09 179.86 379.09 179.21C379.09 178.56 378.56 178.03 377.91 178.03H360.77C360.12 178.03 359.59 178.56 359.59 179.21C359.59 179.86 360.12 180.39 360.77 180.39Z" fill="white"/>
<path d="M338.93 180.39H356.07C356.72 180.39 357.25 179.86 357.25 179.21C357.25 178.56 356.72 178.03 356.07 178.03H338.93C338.28 178.03 337.75 178.56 337.75 179.21C337.75 179.86 338.28 180.39 338.93 180.39Z" fill="white"/>
<path d="M375.84 176.5H381.61C382.26 176.5 382.79 175.97 382.79 175.32C382.79 174.67 382.26 174.14 381.61 174.14H375.84C375.19 174.14 374.66 174.67 374.66 175.32C374.66 175.97 375.19 176.5 375.84 176.5Z" fill="white"/>
<path d="M363.84 176.5H372.03C372.68 176.5 373.21 175.97 373.21 175.32C373.21 174.67 372.68 174.14 372.03 174.14H363.84C363.19 174.14 362.66 174.67 362.66 175.32C362.66 175.97 363.19 176.5 363.84 176.5Z" fill="white"/>
<path d="M335.24 176.5H359.99C360.64 176.5 361.17 175.97 361.17 175.32C361.17 174.67 360.64 174.14 359.99 174.14H335.24C334.59 174.14 334.06 174.67 334.06 175.32C334.06 175.97 334.59 176.5 335.24 176.5Z" fill="white"/>
<path d="M380.91 159.71H370.14C369.22 159.71 368.47 160.46 368.47 161.38C368.47 162.3 369.22 163.05 370.14 163.05H380.91C381.83 163.05 382.58 162.3 382.58 161.38C382.58 160.46 381.83 159.71 380.91 159.71Z" fill="#FF5900"/>
<path d="M199.86 242.9L130.59 307.27C125.16 312.32 124.85 320.81 129.89 326.24C134.94 331.67 143.43 331.98 148.86 326.94L218.13 262.58C223.56 257.53 223.87 249.04 218.83 243.61C213.78 238.18 205.29 237.87 199.86 242.91V242.9Z" fill="#FF5900"/>
<path d="M202.41 246.13L133.63 310.04C129.86 313.54 129.64 319.44 133.15 323.21C136.65 326.98 142.55 327.2 146.32 323.69L215.1 259.78C218.87 256.28 219.09 250.38 215.58 246.6C212.08 242.83 206.18 242.61 202.41 246.12V246.13Z" fill="#322F51"/>
<path d="M136.83 310.51C136.12 311.17 136.08 312.29 136.74 313L143.6 320.38C144.26 321.09 145.38 321.13 146.09 320.47C146.8 319.81 146.84 318.69 146.18 317.98L139.32 310.6C138.66 309.89 137.54 309.85 136.83 310.51Z" fill="#FF5900"/>
<path d="M147.87 300.25C147.16 300.91 147.12 302.03 147.78 302.74L154.64 310.12C155.3 310.83 156.42 310.87 157.13 310.21C157.84 309.55 157.88 308.43 157.22 307.72L150.36 300.34C149.7 299.63 148.58 299.59 147.87 300.25Z" fill="#FF5900"/>
<path d="M158.92 289.98C158.21 290.64 158.17 291.76 158.83 292.47L165.69 299.85C166.35 300.56 167.47 300.6 168.18 299.94C168.89 299.28 168.93 298.16 168.27 297.45L161.41 290.07C160.75 289.36 159.63 289.32 158.92 289.98Z" fill="#FF5900"/>
<path d="M169.96 279.72C169.25 280.38 169.21 281.5 169.87 282.21L176.73 289.59C177.39 290.3 178.51 290.34 179.22 289.68C179.93 289.02 179.97 287.9 179.31 287.19L172.45 279.81C171.79 279.1 170.67 279.06 169.96 279.72Z" fill="#FF5900"/>
<path d="M181.01 269.45C180.3 270.11 180.26 271.23 180.92 271.94L187.78 279.32C188.44 280.03 189.56 280.07 190.27 279.41C190.98 278.75 191.02 277.63 190.36 276.92L183.5 269.54C182.84 268.83 181.72 268.79 181.01 269.45Z" fill="#FF5900"/>
<path d="M192.05 259.19C191.34 259.85 191.3 260.97 191.96 261.68L198.82 269.06C199.48 269.77 200.6 269.81 201.31 269.15C202.02 268.49 202.06 267.37 201.4 266.66L194.54 259.28C193.88 258.57 192.76 258.53 192.05 259.19Z" fill="#FF5900"/>
<g style="mix-blend-mode:multiply" opacity="0.2">
<path d="M199.86 242.9L192.25 249.97C193.32 254.4 195.49 258.62 198.81 262.19C202.13 265.76 206.18 268.25 210.52 269.63L218.13 262.56C223.56 257.51 223.87 249.02 218.83 243.59C213.79 238.16 205.29 237.85 199.86 242.89V242.9Z" fill="#201D33"/>
</g>
<path d="M228.18 251.89L211.26 233.67L226.9 219.14C218.28 216.31 208.42 218.12 201.31 224.73C190.89 234.41 190.29 250.71 199.97 261.13C209.65 271.55 225.95 272.15 236.37 262.47C243.49 255.86 246.02 246.16 243.83 237.36L228.19 251.89H228.18Z" fill="#FF5900"/>
<g opacity="0.2">
<path d="M178.66 271.97L156.77 292.31C156.34 292.71 156.32 293.37 156.72 293.8C157.12 294.23 157.78 294.25 158.21 293.85L180.1 273.51C180.53 273.11 180.55 272.45 180.15 272.02C179.75 271.59 179.09 271.57 178.66 271.97Z" fill="white"/>
<path d="M189.61 261.79L181.67 269.17C181.24 269.57 181.22 270.23 181.62 270.66C182.02 271.09 182.68 271.11 183.11 270.71L191.05 263.33C191.48 262.93 191.5 262.27 191.1 261.84C190.7 261.41 190.04 261.39 189.61 261.79Z" fill="white"/>
</g>
<path d="M213.54 444.7H186.73C185.56 444.7 184.62 443.75 184.62 442.59C184.62 441.43 185.57 440.48 186.73 440.48H198.19C199.36 440.48 200.3 439.53 200.3 438.37C200.3 437.21 199.35 436.26 198.19 436.26H125.41C124.24 436.26 123.3 437.21 123.3 438.37C123.3 439.53 124.25 440.48 125.41 440.48H144.76C145.93 440.48 146.87 441.43 146.87 442.59C146.87 443.75 145.92 444.7 144.76 444.7H140.76C139.59 444.7 138.65 445.65 138.65 446.81C138.65 447.97 139.6 448.92 140.76 448.92H213.54C214.71 448.92 215.65 447.97 215.65 446.81C215.65 445.65 214.7 444.7 213.54 444.7Z" fill="#FFEADF"/>
<path d="M226.94 444.7H220.67C219.5 444.7 218.56 445.65 218.56 446.81C218.56 447.97 219.51 448.92 220.67 448.92H226.94C228.11 448.92 229.05 447.97 229.05 446.81C229.05 445.65 228.1 444.7 226.94 444.7Z" fill="#DEDEF9"/>
<path d="M442.77 151.13H469.58C470.75 151.13 471.69 152.08 471.69 153.24C471.69 154.4 470.74 155.35 469.58 155.35H458.12C456.95 155.35 456.01 156.3 456.01 157.46C456.01 158.62 456.96 159.57 458.12 159.57H530.9C532.07 159.57 533.01 158.62 533.01 157.46C533.01 156.3 532.06 155.35 530.9 155.35H511.55C510.38 155.35 509.44 154.4 509.44 153.24C509.44 152.08 510.39 151.13 511.55 151.13H515.55C516.72 151.13 517.66 150.18 517.66 149.02C517.66 147.86 516.71 146.91 515.55 146.91H442.77C441.6 146.91 440.66 147.86 440.66 149.02C440.66 150.18 441.61 151.13 442.77 151.13Z" fill="#FFEADF"/>
<path d="M526.04 151.13H532.31C533.48 151.13 534.42 150.18 534.42 149.02C534.42 147.86 533.47 146.91 532.31 146.91H526.04C524.87 146.91 523.93 147.86 523.93 149.02C523.93 150.18 524.88 151.13 526.04 151.13Z" fill="#FFEADF"/>
<path d="M428.52 159.59H439.13C440.3 159.59 441.24 158.64 441.24 157.48C441.24 156.32 440.29 155.37 439.13 155.37H428.52C427.35 155.37 426.41 156.32 426.41 157.48C426.41 158.64 427.36 159.59 428.52 159.59Z" fill="#FFEADF"/>
</svg>
